<svg id="Layer_1" data-name="Layer 1" xmlns="http://www.w3.org/2000/svg" viewBox="0 0 83.3 86.14"><defs><style>.cls-1,.cls-2,.cls-3,.cls-4{fill:none;stroke:#0054a4;}.cls-1,.cls-2{stroke-linejoin:round;}.cls-1,.cls-2,.cls-3{stroke-width:0.37px;}.cls-2,.cls-3{stroke-linecap:round;}.cls-4{stroke-width:2px;}</style></defs><title>Lc_LDEI_Des_MoinesLOGO_Greater Des Moines</title><path class="cls-1" d="M12.85,62.2a19.18,19.18,0,0,1-2.24-5.86c0-.33-1.64-7.92,4-8.19a5.44,5.44,0,0,1,4.38,2l.36.53s.3.62,0,.95-.39.58-1.74-.94-2.31-.45-2.31-.45c.34,0,.9.73.9.73l-.45-.06a2.45,2.45,0,0,0-2.64.62c.45-.17.84.39.84.39a1.7,1.7,0,0,0-1.58,1.91l.56.23c-.17.34-.34,2.25,0,1.52l0,0a1.49,1.49,0,0,1,1.16-.74c-.51.17-.34,1-.34,1l.73-.23c.73-.23.79.39.79.39-1.52,1-1.07,2-1.07,2a1.3,1.3,0,0,1,1-.11c-1.63.68-1.4,3.82-1.29,3.43s.9-.73.9-.73c-.95,1.07,0,3.27.11,2.83s.66-.69.66-.69c.28,2.08,1.19,2.63,1.19,2.63l1.07-1.22.22,1c1-.23,1.69-2.42,1.69-2.42l.45,1.29A2.15,2.15,0,0,0,21,62.16l0-1.36c-.06-1.91.51-1.8.73-1.74s.45.67.34,1.57-.39,2.53-.45,3.43.56,2.19.56,1.8.56-1,.56-1l-.12.73a2.35,2.35,0,0,0,1,1.35,2.23,2.23,0,0,1,.17-1,5.52,5.52,0,0,0,2.08,2.36C25.85,67.71,26,67,26,67c.22.62,1.91,1.86,1.91,1.86a3.94,3.94,0,0,1,.06-1.74c.39.45,1.18,1.52,1.18,1.52.28-.11.56-1.91.56-1.91a2.09,2.09,0,0,0,.67.67,10.6,10.6,0,0,0,.5-2.47c.23.05.45.9.45.9A9.05,9.05,0,0,0,31.46,63c.34,0,.67.56.67.56a5.77,5.77,0,0,0-.5-3.32l.79.68c.17-.5-.79-2-.62-1.8s.67.06.67.06l-.22-.51a4.06,4.06,0,0,0-1.07-1.12l.82-.17c-.5-.68-1.11-.95-2.53-1.07s-1.86-1.07-1.69-1.57.79-.73,2,.06A10.44,10.44,0,0,0,32.23,56a8.77,8.77,0,0,0-.11-1l1.41.62a8.11,8.11,0,0,0-.62-2.36c.56.61.82.61.92.58a2.57,2.57,0,0,1,0-.41,1.88,1.88,0,0,0-.5-1.18L34,52.1c-.26-1.53-2.71-1.63-2.71-1.63a2.34,2.34,0,0,1,.64-.54c.34-.17.05-.35.05-.35-.84-.84-2.59-.56-2.42-.9a2.09,2.09,0,0,1,.65-.64c-1.64-.52-2.28.07-2.28.07l.39-.56A1,1,0,0,0,28,46.48a3.26,3.26,0,0,1-2.1,1.29,1.66,1.66,0,0,0,0-2.25l-.56.33c.05-.45-.56-1.74-.79-1.24a1.9,1.9,0,0,1-.79.79c.34-.84-.85-2.3-.85-2.3s.07.13-.73.9a4.72,4.72,0,0,0-1.07,1.4,1.21,1.21,0,0,0-.34-.73A3.57,3.57,0,0,0,20,46.92L19.86,46s.05-1.64-.4.44a2.68,2.68,0,0,0,1.41,3.15c.34.11,1.29.56.79,1.12s-1.8-.8-1.8-.8c-2.47-3.08-5.2-2.63-5.2-2.63-6.66,0-5,9.06-5,9.06A33.28,33.28,0,1,1,73.51,43.29a34.34,34.34,0,0,1-2.66,13.09s1.61-9.07-5.06-9.07c0,0-2.72-.45-5.19,2.63,0,0-1.29,1.36-1.8.8s.45-1,.79-1.12A2.67,2.67,0,0,0,61,46.47c-.45-2.08-.39-.44-.39-.44l-.11.89a3.59,3.59,0,0,0-.84-2.25,1.21,1.21,0,0,0-.34.73A5,5,0,0,0,58.24,44c-.79-.76-.73-.9-.73-.9s-1.18,1.46-.84,2.3a1.89,1.89,0,0,1-.79-.79c-.22-.51-.84.79-.79,1.24l-.56-.33a1.66,1.66,0,0,0,0,2.25,3.26,3.26,0,0,1-2.1-1.29.9.9,0,0,0-.32,1.07l.4.56s-.64-.59-2.28-.07a2.09,2.09,0,0,1,.65.64c.17.33-1.58,0-2.42.9,0,0-.29.18,0,.35a2.35,2.35,0,0,1,.64.54s-2.45.11-2.7,1.63l.73.11s-.67,1.06-.58,1.26.55.09,1-.24A8.11,8.11,0,0,0,47,55.59L48.36,55a8.77,8.77,0,0,0-.11,1,10.64,10.64,0,0,0,2.48-1.18c1.18-.79,1.8-.56,2-.06S52.42,56.2,51,56.31s-2,.39-2.53,1.07l.79.17a4.22,4.22,0,0,0-1.07,1.12l-.22.51s.51.11.68-.06-.79,1.29-.62,1.8l.79-.68a5.74,5.74,0,0,0-.51,3.32S48.66,63,49,63a9.05,9.05,0,0,0,.17,2.87s.22-.84.45-.9a10.71,10.71,0,0,0,.51,2.47,2,2,0,0,0,.67-.67s.28,1.8.56,1.91c0,0,.79-1.07,1.18-1.52a4.12,4.12,0,0,1,.06,1.74s1.68-1.24,1.91-1.86c0,0,.11.67.17,1.35A5.52,5.52,0,0,0,56.76,66a2.14,2.14,0,0,1,.16,1,2.31,2.31,0,0,0,1-1.35l-.11-.73s.56.56.56,1,.62-.9.56-1.8-.34-2.53-.45-3.43.11-1.52.34-1.57.79-.17.73,1.74l0,1.36a2.13,2.13,0,0,0,.71,1.73l.45-1.29s.73,2.19,1.69,2.42l.22-1,1.15,1.28s.84-.6,1.12-2.69c0,0,.55.27.66.69s1.07-1.76.11-2.83c0,0,.79.34.9.73s.34-2.75-1.3-3.43a1.32,1.32,0,0,1,1,.11s.45-1-1.07-2c0,0,.06-.62.79-.39l.73.23s.17-.85-.34-1a1.49,1.49,0,0,1,1.16.74.08.08,0,0,1,0,0c.34.73.17-1.18,0-1.52l.57-.23a1.69,1.69,0,0,0-1.58-1.91s.39-.56.84-.39a2.45,2.45,0,0,0-2.64-.62l-.45.06s.56-.73.9-.73c0,0-.82-1.21-2.3.45s-1.55,1.17-1.74.94,0-1,0-1l.36-.53a5.44,5.44,0,0,1,4.38-2c5.62.27,4,7.86,4,8.19a19.3,19.3,0,0,1-2.22,5.88c-5.27,9-16.19,14.34-27.36,14.34A33.41,33.41,0,0,1,12.85,62.2"/><path class="cls-2" d="M18.17,59.57s.27.35.44.62A5.35,5.35,0,0,1,19,62m-2.91-1.82A1.87,1.87,0,0,1,16,61.47m2.53-3.59-.53.4c-.88.53-.88.4-1.15.62a21.87,21.87,0,0,0-1.46,2.39m3.45-5.35a8.39,8.39,0,0,1-1.28.66c-.66.26-.75.22-.84.35a6.45,6.45,0,0,0-.8,1M19,55.33s1.38,1.61,1.33,2.64m.89-5.57s-2.3,2.26-2.39,3.54-.31,1.15-.31,2.21a.86.86,0,0,0,.13.44,6.2,6.2,0,0,0-.49,1c-.18.49-.4.88-.58,1.46s-.09.66-.26,1.15a5.69,5.69,0,0,0-.18,1.46M31.28,54s-2.92-.75-3.71-2.36m2.11-1.89a2,2,0,0,0-.89,1.41m-2.52,2.53s-1.29-.9-1.43-1.49m3.29-3.07s-2.74.81-3.28,3m7.4-.68s-2.13-.93-3.32-.35a17.3,17.3,0,0,1-4.34,1.11c-1.72.31-2.47-.17-3.12.17m3.87-3.72a4.07,4.07,0,0,0-1.85.86m.44-2.94s-.36,1.42-.83,1.76m-1.79-2.24a9.36,9.36,0,0,0,1.45,1.41m-.29-2.26a9.61,9.61,0,0,0,.21,1.86,8.71,8.71,0,0,0,.81,2.07c.17.35-.66,2-1.37,2.52s-.66.67-.66.67M15.7,54.79a2.73,2.73,0,0,1,1.46-1.19m-.27-2a6.8,6.8,0,0,0,1.77,1.73m-4.78,0a3,3,0,0,1,1.59-.55M26,65.58A2,2,0,0,1,26.14,64a1.64,1.64,0,0,0,.22-.93m.15-3.4v1a2.39,2.39,0,0,0-.31,1.19c0,.57.31,1.86.31,1.86a7,7,0,0,1,.31,2.39m2.83-1.28a5.13,5.13,0,0,0-1.33-1.37m-3.93-7.11.69,1.45s1.37,1.72,1.64,2.12a16.77,16.77,0,0,1,1.6,3.54,3.12,3.12,0,0,0,.71,2.7m-6.11-3a6.12,6.12,0,0,1,1.5-2.3m.09,3.09s.18-1.24.22-1.77a3.64,3.64,0,0,0-.31-1.33l-.27-3a4,4,0,0,0,.14-.62c0-.27.08-.89.08-.89m3.9,1.09s.71,2.83,1.56,3.44M31,58.77s-.39.19-1.33-.57c-1.11-.91-1.46-.8-1.46-.8a8.73,8.73,0,0,1-3.81-1.06L21.84,53l-.4-.62a1.4,1.4,0,0,0-.93.31,7.93,7.93,0,0,1-3.41.93,9.64,9.64,0,0,1-1.9-.89,1.75,1.75,0,0,0-.44-.44M61.48,62a5.35,5.35,0,0,1,.35-1.77c.18-.27.44-.62.44-.62m2.18,1.9a1.93,1.93,0,0,1,0-1.33m.67,1.15a20.42,20.42,0,0,0-1.46-2.39c-.27-.22-.27-.09-1.15-.62l-.53-.4m2.61.09c0-.22-.71-.88-.8-1s-.18-.09-.84-.35a9.56,9.56,0,0,1-1.28-.66m-1.51,2c0-1,1.33-2.64,1.33-2.64m1.86,8.3a5.69,5.69,0,0,0-.18-1.46c-.18-.49-.09-.57-.26-1.15s-.4-1-.58-1.46a5,5,0,0,0-.49-1,.86.86,0,0,0,.13-.44c0-1.06-.22-.93-.31-2.21s-2.39-3.54-2.39-3.54m-6.33-.81C52.1,53.19,49.18,54,49.18,54m2.48-2.84a2,2,0,0,0-.89-1.41m4.84,2.45c-.13.59-1.43,1.49-1.43,1.49m1.42-1.53c-.54-2.22-3.27-3-3.27-3M59,52.34c-.65-.34-1.39.14-3.11-.17a17.41,17.41,0,0,1-4.34-1.11c-1.2-.57-3.32.35-3.32.35M57,49.5a4,4,0,0,0-1.84-.86m2.25-.32c-.48-.34-.83-1.76-.83-1.76m1.16.92a8.93,8.93,0,0,0,1.45-1.41M59,52.36s0-.13-.67-.67S56.79,49.52,57,49.17a9.08,9.08,0,0,0,.81-2.07A9.61,9.61,0,0,0,58,45.24m5.3,8.36a2.73,2.73,0,0,1,1.46,1.19m-3-1.42a6.64,6.64,0,0,0,1.77-1.73M65,52.87a2.92,2.92,0,0,1,1.59.55M54.09,63.06a1.64,1.64,0,0,0,.22.93,2,2,0,0,1,.13,1.59m-.79.53A7,7,0,0,1,54,63.72s.27-1.28.31-1.86A2.46,2.46,0,0,0,54,60.67v-1m-1.81,3.8a5.49,5.49,0,0,0-1.33,1.37m.63,1.32a3.12,3.12,0,0,0,.71-2.7,16.28,16.28,0,0,1,1.6-3.54c.27-.4,1.64-2.12,1.64-2.12l.69-1.45m0,4.51a6,6,0,0,1,1.5,2.3m-1.46-6.82s.05.62.07.89a5.11,5.11,0,0,0,.15.62l-.27,3a3.43,3.43,0,0,0-.31,1.33c0,.53.22,1.77.22,1.77m-5.3-3.1c.84-.6,1.55-3.44,1.55-3.44m13.5-5.14a1.59,1.59,0,0,0-.44.44,10.27,10.27,0,0,1-1.9.89,7.83,7.83,0,0,1-3.41-.93,1.4,1.4,0,0,0-.93-.31l-.4.62-2.52,3.36a8.58,8.58,0,0,1-3.81,1.06s-.34-.11-1.46.8c-.93.77-1.33.57-1.33.57"/><path class="cls-2" d="M41.7,51.8s.29,0,.42.06l1.55-3.13c-.12-.09-.23-.18-.34-.25Z"/><path class="cls-2" d="M53.93,28a.55.55,0,0,1-.45-.2L43.74,47.65l.35.24Z"/><path class="cls-2" d="M58.47,33.58a.48.48,0,0,1-.38-.29L45.31,48.87l.3.28Z"/><path class="cls-2" d="M35.82,49.71c-.09.11-.17.22-.25.34l2,2.43a1.43,1.43,0,0,1,.2-.23L36.89,51Z"/><path class="cls-2" d="M38.65,48.13a1.79,1.79,0,0,0-.42-.05l.41,1.85c.24.79.42,1.4.57,1.87l.17,0c-.07-.45-.14-.88-.21-1.31Z"/><path class="cls-2" d="M38.3,51.88a1.32,1.32,0,0,1,.39-.1l-1.62-3.29-.34.25Z"/><path class="cls-3" d="M40.29,52.62a1.57,1.57,0,0,1,.75-.69c-.16-.45-.71-2.19-.16-3.13.44-.74,2-1.63,4.1,1.43a1.77,1.77,0,0,0,2.21.68,14.3,14.3,0,0,0-3.33-3.17c-2.18-1.5-3.65.95-3.65,1.25,0-.31-1.39-2.54-3.48-1.41a10.48,10.48,0,0,0-3.49,3.31,1.74,1.74,0,0,0,2.18-.66c2.12-3.08,3.67-2.17,4.1-1.43.64,1.08-.14,3.05-.14,3.05a1.71,1.71,0,0,1,.91.77"/><path class="cls-2" d="M41.73,50l-.4,1.81.16,0L43,48.29a2.07,2.07,0,0,0-.69-.21C42.1,48.8,41.91,49.44,41.73,50Z"/><path class="cls-2" d="M55.36,33.63c1.63-2.85,6.16-11.18,5.76-11.39s-6.72,9.12-7.65,10.42c-1.1,1.52-5.7,9.56-9,15.47l.75.61C52.07,39,54.56,35,55.36,33.63Z"/><path class="cls-2" d="M62.28,40.17a17.84,17.84,0,0,0-5.5.76c-1.09.41-3.73,1.47-8.44,6.66-.79.87-1.46,1.63-2,2.27l.51.58A61.16,61.16,0,0,1,53.07,44c2.61-1.92,2.83-1.68,5.71-2a8.1,8.1,0,0,0,.95-.17h-.07A19,19,0,0,0,62.28,40.17Z"/><path class="cls-2" d="M67.83,37.22c-1.44.2-3.73,1.71-5.55,3a17.85,17.85,0,0,1-2.62,1.65h.07c.43,0,2.88,0,7.49-2.61,2.57-1.46,3.16-1,3.57-1C70.78,38.18,70.33,36.86,67.83,37.22Z"/><path class="cls-2" d="M18.08,40.06c-1.82-1.24-4.11-2.74-5.55-3-2.49-.36-2.95,1-2.95,1,.41.07,1-.43,3.57,1,4.6,2.61,7.06,2.63,7.48,2.61h.07A17.85,17.85,0,0,1,18.08,40.06Z"/><path class="cls-2" d="M40.9,48.79h0c0,.9-.06,1.7-.09,2.28.06.25.11.47.16.61s.48-2.71.6-3.49A1.54,1.54,0,0,0,40.9,48.79Z"/><path class="cls-2" d="M38.06,48.09a2.11,2.11,0,0,0-.69.22c.67,1.53,1.15,2.66,1.5,3.46H39S38.27,48.76,38.06,48.09Z"/><path class="cls-2" d="M35.9,49.62c.32.46,1.94,2.55,1.94,2.55a1.46,1.46,0,0,1,.33-.22l-1.68-3A4.66,4.66,0,0,0,35.9,49.62Z"/><path class="cls-2" d="M35.12,50.59c1.06,1.29,2.2,2.77,2.2,2.77a2.27,2.27,0,0,1,0-.37,2.46,2.46,0,0,1,.12-.35s-1-1-2.09-2.35A1.56,1.56,0,0,1,35.12,50.59Z"/><path class="cls-2" d="M46.11,49.64c.59-.7,1.15-1.35,1.52-1.74,1.57-1.62,4.88-6,6-6.85a11.33,11.33,0,0,1,4.59-2.61c2.5-.58,5.18-1,7.2-3.37,1.59-1.87,1.34-1.68,1.34-1.68s-5.58,1.92-7.38,2.85a46.81,46.81,0,0,0-6.68,5c-.39.42-4.19,4.91-6.91,8.14A3.57,3.57,0,0,1,46.11,49.64Z"/><line class="cls-2" x1="22.2" y1="33.49" x2="17.58" y2="27.78"/><path class="cls-2" d="M16.4,25.9a4.74,4.74,0,0,0-.76-1.61"/><path class="cls-2" d="M17.57,26.94a7.36,7.36,0,0,0-.79-2.37"/><path class="cls-2" d="M18.74,29.19A7.08,7.08,0,0,0,18.26,25"/><path class="cls-2" d="M20,30.7a10.16,10.16,0,0,0-.43-4.51"/><path class="cls-2" d="M21.11,32.16a9.89,9.89,0,0,0-.34-4.62"/><path class="cls-2" d="M15.94,26.16a4.56,4.56,0,0,1-1.33-1"/><path class="cls-2" d="M17.66,27.88a12.43,12.43,0,0,1-3-1.58"/><path class="cls-2" d="M18.71,29.21a7.46,7.46,0,0,1-4-1.38"/><path class="cls-2" d="M19.93,30.73a10.86,10.86,0,0,1-4.23-1.42"/><path class="cls-2" d="M21.1,32.16a10.51,10.51,0,0,1-4.32-1.37"/><path class="cls-2" d="M17.68,26.52s-.6,1.17,1,2.37A2,2,0,0,0,17.68,26.52Z"/><path class="cls-2" d="M19,28.07s-.62,1.2,1,2.4A2.07,2.07,0,0,0,19,28.07Z"/><path class="cls-2" d="M20.12,29.5s-.6,1.17,1,2.38A2.06,2.06,0,0,0,20.12,29.5Z"/><path class="cls-2" d="M21.36,31.1s-.6,1.18,1,2.38A2.06,2.06,0,0,0,21.36,31.1Z"/><path class="cls-2" d="M16.29,27.66s1.27-.35,2.13,1.44A2.05,2.05,0,0,1,16.29,27.66Z"/><path class="cls-2" d="M17.56,29.2s1.28-.37,2.13,1.44A2,2,0,0,1,17.56,29.2Z"/><path class="cls-2" d="M18.73,30.64s1.27-.35,2.13,1.44A2,2,0,0,1,18.73,30.64Z"/><path class="cls-2" d="M20,32.18s1.27-.35,2.13,1.44A2,2,0,0,1,20,32.18Z"/><path class="cls-2" d="M16,25.79s1.32,0,1.63,2A2,2,0,0,1,16,25.79Z"/><line class="cls-2" x1="40.2" y1="23.01" x2="40.22" y2="15.67"/><path class="cls-2" d="M40.49,13.46a4.68,4.68,0,0,0,.43-1.73"/><path class="cls-2" d="M40.74,15a7.14,7.14,0,0,0,.88-2.34"/><path class="cls-2" d="M40.23,17.49a7.14,7.14,0,0,0,2.31-3.59"/><path class="cls-2" d="M40.23,19.43a10.05,10.05,0,0,0,2.51-3.77"/><path class="cls-2" d="M40.19,21.29a9.82,9.82,0,0,0,2.65-3.8"/><path class="cls-2" d="M40,13.38a4.4,4.4,0,0,1-.38-1.64"/><path class="cls-2" d="M40.22,15.79a12.37,12.37,0,0,1-1.33-3.12"/><path class="cls-2" d="M40.19,17.49A7.34,7.34,0,0,1,38,13.91"/><path class="cls-2" d="M40.18,19.43a10.93,10.93,0,0,1-2.39-3.77"/><path class="cls-2" d="M40.19,21.28a10.75,10.75,0,0,1-2.49-3.79"/><path class="cls-2" d="M41.09,14.75s-1.2.53-.73,2.47A2.06,2.06,0,0,0,41.09,14.75Z"/><path class="cls-2" d="M41.1,16.75s-1.23.54-.76,2.48A2.05,2.05,0,0,0,41.1,16.75Z"/><path class="cls-2" d="M41.1,18.6s-1.21.53-.73,2.47A2,2,0,0,0,41.1,18.6Z"/><path class="cls-2" d="M41.05,20.63s-1.2.54-.73,2.47A2,2,0,0,0,41.05,20.63Z"/><path class="cls-2" d="M39.3,14.75s1.21.53.74,2.46A2,2,0,0,1,39.3,14.75Z"/><path class="cls-2" d="M39.31,16.75s1.22.52.74,2.47A2,2,0,0,1,39.31,16.75Z"/><path class="cls-2" d="M39.31,18.61s1.21.53.74,2.47A2.06,2.06,0,0,1,39.31,18.61Z"/><path class="cls-2" d="M39.34,20.62s1.21.53.74,2.46A2,2,0,0,1,39.34,20.62Z"/><path class="cls-2" d="M40.21,13.09s1,.85,0,2.58A2.06,2.06,0,0,1,40.21,13.09Z"/><line class="cls-2" x1="33" y1="24.23" x2="31.37" y2="17.08"/><path class="cls-2" d="M31.14,14.87a4.73,4.73,0,0,0,0-1.78"/><path class="cls-2" d="M31.73,16.32a7.31,7.31,0,0,0,.34-2.48"/><path class="cls-2" d="M31.79,18.85a7.13,7.13,0,0,0,1.44-4"/><path class="cls-2" d="M32.23,20.74a10.15,10.15,0,0,0,1.6-4.24"/><path class="cls-2" d="M32.61,22.56a9.82,9.82,0,0,0,1.73-4.3"/><path class="cls-2" d="M30.62,14.9a4.56,4.56,0,0,1-.74-1.51"/><path class="cls-2" d="M31.4,17.2a12.08,12.08,0,0,1-2-2.74"/><path class="cls-2" d="M31.75,18.85a7.36,7.36,0,0,1-2.95-3"/><path class="cls-2" d="M32.18,20.75A10.87,10.87,0,0,1,29,17.61"/><path class="cls-2" d="M32.6,22.56a10.53,10.53,0,0,1-3.27-3.13"/><path class="cls-2" d="M32,16s-1,.79-.15,2.57A2,2,0,0,0,32,16Z"/><path class="cls-2" d="M32.47,17.93s-1.08.8-.18,2.58A2,2,0,0,0,32.47,17.93Z"/><path class="cls-2" d="M32.89,19.74s-1.05.79-.15,2.57A2,2,0,0,0,32.89,19.74Z"/><path class="cls-2" d="M33.3,21.72s-1,.79-.15,2.57A2,2,0,0,0,33.3,21.72Z"/><path class="cls-2" d="M30.27,16.39s1.3.24,1.28,2.24A2,2,0,0,1,30.27,16.39Z"/><path class="cls-2" d="M30.73,18.34S32,18.58,32,20.58A2,2,0,0,1,30.73,18.34Z"/><path class="cls-2" d="M31.15,20.15s1.3.24,1.28,2.24A2.05,2.05,0,0,1,31.15,20.15Z"/><path class="cls-2" d="M31.63,22.1s1.29.24,1.28,2.24A2,2,0,0,1,31.63,22.1Z"/><path class="cls-2" d="M30.79,14.57s1.17.6.59,2.51A2,2,0,0,1,30.79,14.57Z"/><line class="cls-2" x1="26.67" y1="27.98" x2="23.47" y2="21.37"/><path class="cls-2" d="M22.75,19.27a4.57,4.57,0,0,0-.37-1.74"/><path class="cls-2" d="M23.66,20.54a7.31,7.31,0,0,0-.23-2.49"/><path class="cls-2" d="M24.28,23a7.14,7.14,0,0,0,.5-4.24"/><path class="cls-2" d="M25.13,24.74a10.11,10.11,0,0,0,.61-4.49"/><path class="cls-2" d="M25.91,26.43a9.85,9.85,0,0,0,.72-4.58"/><path class="cls-2" d="M22.25,19.42a4.44,4.44,0,0,1-1.06-1.3"/><path class="cls-2" d="M23.53,21.48A12.26,12.26,0,0,1,21,19.26"/><path class="cls-2" d="M24.25,23a7.42,7.42,0,0,1-3.55-2.25"/><path class="cls-2" d="M25.09,24.77a10.92,10.92,0,0,1-3.8-2.34"/><path class="cls-2" d="M25.91,26.43A10.63,10.63,0,0,1,22,24.12"/><path class="cls-2" d="M23.85,20.16s-.85,1,.43,2.54A2,2,0,0,0,23.85,20.16Z"/><path class="cls-2" d="M24.74,22s-.87,1,.41,2.56A2.07,2.07,0,0,0,24.74,22Z"/><path class="cls-2" d="M25.56,23.62s-.85,1,.43,2.54A2.06,2.06,0,0,0,25.56,23.62Z"/><path class="cls-2" d="M26.4,25.46s-.85,1,.43,2.54A2,2,0,0,0,26.4,25.46Z"/><path class="cls-2" d="M22.24,21s1.32-.06,1.75,1.89C24,22.84,22.24,22.55,22.24,21Z"/><path class="cls-2" d="M23.13,22.74s1.33-.06,1.75,1.89C24.88,24.63,23.11,24.35,23.13,22.74Z"/><path class="cls-2" d="M23.94,24.41s1.32-.05,1.75,1.89C25.69,26.3,23.94,26,23.94,24.41Z"/><path class="cls-2" d="M24.85,26.21s1.32-.05,1.75,1.89C26.6,28.1,24.85,27.81,24.85,26.21Z"/><path class="cls-2" d="M22.34,19.06s1.28.33,1.13,2.31A2.06,2.06,0,0,1,22.34,19.06Z"/><line class="cls-2" x1="62.99" y1="27.7" x2="58.37" y2="33.41"/><path class="cls-2" d="M64.92,24.21a4.74,4.74,0,0,0-.76,1.61"/><path class="cls-2" d="M63.79,24.49A7.09,7.09,0,0,0,63,26.86"/><path class="cls-2" d="M62.31,24.87a7.08,7.08,0,0,0-.48,4.24"/><path class="cls-2" d="M61,26.1a10.16,10.16,0,0,0-.43,4.51"/><path class="cls-2" d="M59.8,27.46a9.74,9.74,0,0,0-.34,4.62"/><path class="cls-2" d="M66,25.05a4.56,4.56,0,0,1-1.33,1"/><path class="cls-2" d="M65.91,26.22a12.25,12.25,0,0,1-3,1.58"/><path class="cls-2" d="M65.83,27.75a7.46,7.46,0,0,1-4,1.38"/><path class="cls-2" d="M64.87,29.23a11.06,11.06,0,0,1-4.23,1.42"/><path class="cls-2" d="M63.79,30.71a10.69,10.69,0,0,1-4.32,1.37"/><path class="cls-2" d="M61.9,28.81c1.59-1.2,1-2.37,1-2.37A2,2,0,0,0,61.9,28.81Z"/><path class="cls-2" d="M60.64,30.38c1.59-1.2,1-2.4,1-2.4A2.06,2.06,0,0,0,60.64,30.38Z"/><path class="cls-2" d="M59.45,31.8c1.59-1.2,1-2.38,1-2.38A2.06,2.06,0,0,0,59.45,31.8Z"/><path class="cls-2" d="M58.21,33.4c1.59-1.2,1-2.37,1-2.37A2,2,0,0,0,58.21,33.4Z"/><path class="cls-2" d="M62.15,29c.86-1.8,2.13-1.44,2.13-1.44A2.05,2.05,0,0,1,62.15,29Z"/><path class="cls-2" d="M60.88,30.56c.85-1.81,2.13-1.44,2.13-1.44A2,2,0,0,1,60.88,30.56Z"/><path class="cls-2" d="M59.7,32c.86-1.8,2.13-1.44,2.13-1.44A2,2,0,0,1,59.7,32Z"/><path class="cls-2" d="M58.41,33.54c.87-1.79,2.13-1.44,2.13-1.44A2,2,0,0,1,58.41,33.54Z"/><path class="cls-2" d="M63,27.7c.31-2,1.63-2,1.63-2C64.71,27.31,63,27.7,63,27.7Z"/><line class="cls-2" x1="48.86" y1="17.09" x2="47.23" y2="24.25"/><path class="cls-2" d="M49.06,13.11a4.73,4.73,0,0,0,0,1.78"/><path class="cls-2" d="M48.16,13.86a7.37,7.37,0,0,0,.34,2.48"/><path class="cls-2" d="M47,14.85a7,7,0,0,0,1.44,4"/><path class="cls-2" d="M46.4,16.52A10.08,10.08,0,0,0,48,20.76"/><path class="cls-2" d="M45.89,18.28a9.82,9.82,0,0,0,1.73,4.3"/><path class="cls-2" d="M50.36,13.41a4.44,4.44,0,0,1-.74,1.51"/><path class="cls-2" d="M50.83,14.48a12.08,12.08,0,0,1-2,2.74"/><path class="cls-2" d="M51.43,15.88a7.36,7.36,0,0,1-3,3"/><path class="cls-2" d="M51.22,17.64a11.07,11.07,0,0,1-3.17,3.14"/><path class="cls-2" d="M50.9,19.44a10.62,10.62,0,0,1-3.28,3.13"/><path class="cls-2" d="M48.37,18.57c.9-1.78-.15-2.57-.15-2.57A2,2,0,0,0,48.37,18.57Z"/><path class="cls-2" d="M47.94,20.54c.9-1.78-.18-2.58-.18-2.58A2,2,0,0,0,47.94,20.54Z"/><path class="cls-2" d="M47.49,22.33c.9-1.78-.15-2.57-.15-2.57A2,2,0,0,0,47.49,22.33Z"/><path class="cls-2" d="M47.08,24.31c.9-1.78-.15-2.57-.15-2.57A2,2,0,0,0,47.08,24.31Z"/><path class="cls-2" d="M48.68,18.64c0-2,1.28-2.23,1.28-2.23A2,2,0,0,1,48.68,18.64Z"/><path class="cls-2" d="M48.23,20.59c0-2,1.28-2.24,1.28-2.24A2,2,0,0,1,48.23,20.59Z"/><path class="cls-2" d="M47.8,22.4c0-2,1.28-2.24,1.28-2.24A2,2,0,0,1,47.8,22.4Z"/><path class="cls-2" d="M47.33,24.35c0-2,1.28-2.24,1.28-2.24A2.06,2.06,0,0,1,47.33,24.35Z"/><path class="cls-2" d="M48.86,17.1c-.58-1.9.59-2.51.59-2.51A2.07,2.07,0,0,1,48.86,17.1Z"/><line class="cls-2" x1="56.87" y1="21.19" x2="53.67" y2="27.8"/><path class="cls-2" d="M58,17.35a4.8,4.8,0,0,0-.37,1.74"/><path class="cls-2" d="M56.91,17.88a7.31,7.31,0,0,0-.23,2.49"/><path class="cls-2" d="M55.56,18.58a7.14,7.14,0,0,0,.5,4.24"/><path class="cls-2" d="M54.6,20.07a10.07,10.07,0,0,0,.61,4.49"/><path class="cls-2" d="M53.71,21.67a9.85,9.85,0,0,0,.72,4.58"/><path class="cls-2" d="M59.15,17.93a4.57,4.57,0,0,1-1.06,1.31"/><path class="cls-2" d="M59.37,19.08a12,12,0,0,1-2.56,2.22"/><path class="cls-2" d="M59.64,20.59a7.42,7.42,0,0,1-3.55,2.25"/><path class="cls-2" d="M59.05,22.25a10.92,10.92,0,0,1-3.8,2.34"/><path class="cls-2" d="M58.33,23.94a10.65,10.65,0,0,1-3.9,2.32"/><path class="cls-2" d="M56.06,22.52c1.28-1.53.43-2.54.43-2.54A2,2,0,0,0,56.06,22.52Z"/><path class="cls-2" d="M55.19,24.33c1.28-1.53.41-2.56.41-2.56A2.06,2.06,0,0,0,55.19,24.33Z"/><path class="cls-2" d="M54.36,26c1.28-1.53.43-2.54.43-2.54A2,2,0,0,0,54.36,26Z"/><path class="cls-2" d="M53.51,27.82c1.28-1.53.43-2.54.43-2.54A2,2,0,0,0,53.51,27.82Z"/><path class="cls-2" d="M56.35,22.66c.43-1.94,1.75-1.89,1.75-1.89C58.1,22.37,56.35,22.66,56.35,22.66Z"/><path class="cls-2" d="M55.46,24.45c.42-2,1.75-1.89,1.75-1.89C57.23,24.17,55.46,24.45,55.46,24.45Z"/><path class="cls-2" d="M54.65,26.12c.43-1.94,1.75-1.89,1.75-1.89C56.4,25.83,54.65,26.12,54.65,26.12Z"/><path class="cls-2" d="M53.74,27.92C54.17,26,55.49,26,55.49,26,55.49,27.63,53.74,27.92,53.74,27.92Z"/><path class="cls-2" d="M56.86,21.19c-.14-2,1.14-2.31,1.14-2.31A2,2,0,0,1,56.86,21.19Z"/><circle class="cls-4" cx="40.29" cy="43.15" r="36.25"/><path class="cls-2" d="M36,48.06c-3.35-5.91-8-14-9.07-15.51-.94-1.3-7.25-10.63-7.66-10.42S23.37,30.67,25,33.52c.8,1.4,3.29,5.36,10.22,15.13A9.32,9.32,0,0,1,36,48.06Z"/><path class="cls-2" d="M34.08,49.79c-.57-.66-1.25-1.42-2.06-2.31-4.71-5.19-7.35-6.25-8.44-6.66a18.15,18.15,0,0,0-5.5-.76,17.85,17.85,0,0,0,2.62,1.65h-.07a8.1,8.1,0,0,0,.95.17c2.88.34,3.1.1,5.71,2a61.78,61.78,0,0,1,6.31,6.5C33.72,50.23,33.89,50,34.08,49.79Z"/><path class="cls-2" d="M35.06,48.79,22.39,33.34c-.05.28-.38.29-.38.29L34.76,49.07Z"/><path class="cls-2" d="M34.55,49.28c-2.73-3.23-6.55-7.75-6.94-8.17a46.82,46.82,0,0,0-6.68-5c-1.8-.93-7.38-2.85-7.38-2.85s-.26-.19,1.34,1.68c2,2.38,4.7,2.79,7.2,3.37a11.33,11.33,0,0,1,4.59,2.61c1.16.87,4.47,5.23,6,6.86.38.4,1,1,1.56,1.77A3.43,3.43,0,0,0,34.55,49.28Z"/><path class="cls-2" d="M36.66,47.63c-.14-.28-9.47-19.36-9.7-19.81a.8.8,0,0,1-.43.25L36.3,47.84Z"/><path class="cls-2" d="M37.8,47.27c-2-6.53-5.29-16.9-6.12-18.78C31,27,26.8,16.58,26.34,16.7s2.21,9.23,3.19,12.36c.51,1.61,2.23,6.31,7.47,18.4A2.32,2.32,0,0,1,37.8,47.27Z"/><path class="cls-2" d="M38.47,47.34c-.38-1.65-5.2-23-5.23-23.13a.57.57,0,0,1-.47.08l5.27,23A2.58,2.58,0,0,1,38.47,47.34Z"/><path class="cls-2" d="M38.68,47.42a2.39,2.39,0,0,1,.75.47c-.28-6.68-.83-18.88-1.17-21C38,25.27,36.6,14.09,36.12,14.09s-.23,9.48-.08,12.76C36.12,28.56,36.61,33.8,38.68,47.42Z"/><path class="cls-2" d="M39.57,51.35c0-.62-.06-1.52-.11-2.66a1.55,1.55,0,0,0-.46-.41h0l-.17-.08h0l.59,3.37,0,.23Z"/><path class="cls-2" d="M40.2,48.93a.08.08,0,0,1,0,0,1.57,1.57,0,0,1,.22-.44c0-1,.06-25.3.06-25.49a.42.42,0,0,1-.48,0l0,25.56A.91.91,0,0,1,40.2,48.93Z"/><path class="cls-2" d="M54,16.8c-.46-.12-4.69,10.32-5.34,11.79-.83,1.87-4.06,12.13-6.09,18.67a2.12,2.12,0,0,1,.8.21c5.2-12,6.93-16.71,7.43-18.31C51.81,26,54.47,16.92,54,16.8Z"/><path class="cls-2" d="M42.33,47.26c.11-.5,5.06-22.75,5.1-22.94a.5.5,0,0,1-.47-.08L41.9,47.34A3,3,0,0,1,42.33,47.26Z"/><path class="cls-2" d="M41.68,47.43C43.75,33.85,44.23,28.67,44.31,27c.15-3.28.39-12.76-.08-12.76S42.34,25.38,42.09,27c-.34,2.16-.89,14.3-1.16,21A2.49,2.49,0,0,1,41.68,47.43Z"/><path class="cls-2" d="M45,50.3l-2,2.34a1.59,1.59,0,0,1,.17.52c.18-.23,1.11-1.36,2.09-2.55A3.39,3.39,0,0,1,45,50.3Z"/><path class="cls-2" d="M44.62,49.72l-1.15,1.39c-.25.36-.5.7-.77,1.07a1.57,1.57,0,0,1,.21.24l2-2.36Z"/><path class="cls-2" d="M43.94,49c-.63,1.12-1.19,2.08-1.67,2.94a2,2,0,0,1,.37.22s1.55-2,1.9-2.51l-.25-.3Z"/><path class="cls-2" d="M46.3,51a1.49,1.49,0,0,1-.77-.26c-1.66,1.95-2.16,2.63-2.31,2.86a1.37,1.37,0,0,1-.11.36l-.08.16a2.28,2.28,0,0,1,.5.06,1.52,1.52,0,0,1,.22-.22c.41-.49,1.43-1.67,2.55-3Z"/><path class="cls-2" d="M34.13,51c.87,1,1.65,1.89,2.11,2.44h.19a1.6,1.6,0,0,1,.62.13l.22.11c-.23-.3-.88-1.19-2.35-2.93A1.61,1.61,0,0,1,34.13,51Z"/><path class="cls-2" d="M41.73,48.15c0,.2-.68,3.2-.75,3.6,0,0,0,0,0,0l0,.13.1,0c.16-.47.23-.73.58-1.86l.42-1.94A1.84,1.84,0,0,0,41.73,48.15Z"/><path class="cls-2" d="M38,55a1.57,1.57,0,1,1-1.57-1.57A1.57,1.57,0,0,1,38,55Z"/><path class="cls-2" d="M43.77,69.11A1.77,1.77,0,1,1,42,67.34,1.78,1.78,0,0,1,43.77,69.11Z"/><path class="cls-2" d="M40.58,59.49a1.77,1.77,0,1,1-1.77-1.77A1.77,1.77,0,0,1,40.58,59.49Z"/><path class="cls-2" d="M37,59.49a1.77,1.77,0,0,1,.73-1.43A1.56,1.56,0,1,0,37,59.55S37,59.51,37,59.49Z"/><path class="cls-2" d="M37.1,60a1.63,1.63,0,0,0-.59-.1,1.77,1.77,0,1,0,1.77,1.77,1.7,1.7,0,0,0-.06-.46A1.78,1.78,0,0,1,37.1,60Z"/><path class="cls-2" d="M40.24,54.43A1.77,1.77,0,0,0,39,55a1.56,1.56,0,0,1,.1,2.55,1.74,1.74,0,0,0,1.17.45,1.77,1.77,0,0,0,0-3.54Z"/><path class="cls-2" d="M38.89,51.77a1.57,1.57,0,0,0-1.57,1.57,1.27,1.27,0,0,0,.07.44,1.59,1.59,0,0,1,.54.8,1.1,1.1,0,0,0,.21.14,1.79,1.79,0,0,1,.73.19H39a1.8,1.8,0,0,1,1-.46,1.56,1.56,0,0,0,.46-1.11A1.58,1.58,0,0,0,38.89,51.77Z"/><path class="cls-2" d="M41.74,54.94A1.58,1.58,0,0,1,43,54.16a1.51,1.51,0,0,0,.21-.79,1.57,1.57,0,0,0-2.95-.75,1.6,1.6,0,0,1,.18.72,1.58,1.58,0,0,1-.19.75,1.41,1.41,0,0,0,.27.37,1.7,1.7,0,0,1,.92.47h.28Z"/><path class="cls-2" d="M40.55,70.14a0,0,0,0,1,0,0,1.57,1.57,0,0,1-1.17.53,1.61,1.61,0,0,1-.44-.06,1.57,1.57,0,1,0,2.74,1.05,1.58,1.58,0,0,0-.26-.86A1.87,1.87,0,0,1,40.55,70.14Z"/><path class="cls-2" d="M40.22,69.11a2.45,2.45,0,0,1,0-.27,1.78,1.78,0,0,1-1.14.42,1.73,1.73,0,0,1-1.26-.53,1.47,1.47,0,0,0,0,.36,1.57,1.57,0,0,0,1.57,1.57,1.59,1.59,0,0,0,1.18-.53A1.73,1.73,0,0,1,40.22,69.11Z"/><path class="cls-2" d="M39.16,65.91v0a1.76,1.76,0,0,1-1,.32l-.24,0a1.77,1.77,0,0,0,2.34,2.66,1.79,1.79,0,0,1,.61-1.08s0-.05,0-.07A1.78,1.78,0,0,1,39.16,65.91Z"/><path class="cls-2" d="M39.86,64.4a1.77,1.77,0,0,1-1.77-1.75h-.15a1.76,1.76,0,0,1-1.22.72,1.77,1.77,0,0,0,2.44,2.49,1.79,1.79,0,0,1,.76-1.43v-.06A.07.07,0,0,1,39.86,64.4Z"/><path class="cls-2" d="M44.83,56.73a1.78,1.78,0,0,0-1.35.62,1.76,1.76,0,0,1,.45,1.18,1.72,1.72,0,0,1-.25.91l.25,0a1.76,1.76,0,0,1,1.45.76,1.77,1.77,0,0,0-.55-3.45Z"/><path class="cls-2" d="M43.87,65.05a1.8,1.8,0,0,1-1.18.69.06.06,0,0,0,0,0,1.64,1.64,0,0,1,0,.22A1.78,1.78,0,0,1,42,67.35h0a1.78,1.78,0,0,1,1.45.75,1.77,1.77,0,0,0,1.11-1.64A1.73,1.73,0,0,0,43.87,65.05Z"/><path class="cls-2" d="M42.52,65.13a.83.83,0,0,0-.07-.13Z"/><path class="cls-2" d="M42.67,65.58a.24.24,0,0,0,0-.08A.19.19,0,0,1,42.67,65.58Z"/><path class="cls-2" d="M42.58,65.27a.61.61,0,0,0,0-.12A.61.61,0,0,1,42.58,65.27Z"/><path class="cls-2" d="M42.63,65.42l0-.1Z"/><path class="cls-2" d="M42.83,60.17a1.85,1.85,0,0,1-.66.13,1.78,1.78,0,0,1-1.34-.61,1.51,1.51,0,0,0-.28.15A1.77,1.77,0,0,1,39.76,61a2.09,2.09,0,0,0,0,.35,1.77,1.77,0,1,0,3.11-1.16Z"/><path class="cls-2" d="M42.62,60.24Z"/><path class="cls-2" d="M43.93,59.42l-.25,0a1.75,1.75,0,0,1-.86.73h0a1.77,1.77,0,0,1,.44,1.16,1.75,1.75,0,0,1-.48,1.21,1.77,1.77,0,1,0,1.15-3.12Z"/><path class="cls-2" d="M43.41,57.27a1.57,1.57,0,0,1-1.48-.5h0A1.76,1.76,0,0,1,40.48,58a1.8,1.8,0,0,0-.1.57,1.28,1.28,0,0,0,0,.19,1.68,1.68,0,0,1,.17.59,1.77,1.77,0,0,0,3.37-.77A1.69,1.69,0,0,0,43.41,57.27Z"/><path class="cls-2" d="M37.71,57.81a1.75,1.75,0,0,0,.4,0,1.58,1.58,0,0,1,.65-.14,1.57,1.57,0,0,0-.65-3H38a1.53,1.53,0,0,1,0,.3,1.58,1.58,0,0,1-1.43,1.57.35.35,0,0,0,0,.11A1.56,1.56,0,0,1,37.71,57.81Z"/><path class="cls-2" d="M44.21,56.84a1.57,1.57,0,0,0-1.1-2.69,1.55,1.55,0,0,0-1.45,1,1.78,1.78,0,0,1,.27,1.63,1.57,1.57,0,0,0,1.18.54,1.5,1.5,0,0,0,.52-.09A1.6,1.6,0,0,1,44.21,56.84Z"/><path class="cls-2" d="M41.49,63.11l-.24,0Z"/><path class="cls-2" d="M41,63h0l.23,0Z"/><path class="cls-2" d="M43.91,63a1.75,1.75,0,0,1-1.13-.42h0a1.77,1.77,0,0,1-1.3.56h.08a1.75,1.75,0,0,1-.8,1h.16a1.77,1.77,0,0,1,1.76,1.6A1.78,1.78,0,0,0,44.22,64,1.68,1.68,0,0,0,43.91,63Z"/><path class="cls-2" d="M41.49,63.11a1.77,1.77,0,0,1-1.77-1.77,1.34,1.34,0,0,1,0-.35,1.78,1.78,0,0,1-.94.27h-.07a1.88,1.88,0,0,0-.48.61,1.94,1.94,0,0,1-.15.5,2.11,2.11,0,0,0,0,.25,1.77,1.77,0,0,0,3.48.47A.16.16,0,0,1,41.49,63.11Z"/><path class="cls-2" d="M44.67,55.73a1.59,1.59,0,0,1-.34,1l.23,0,.27,0H45a1.57,1.57,0,1,0-1.5-2.53A1.55,1.55,0,0,1,44.67,55.73Z"/></svg>