<svg id="Layer_1" data-name="Layer 1" xmlns="http://www.w3.org/2000/svg" viewBox="0 0 155.97 146.82"><defs><style>.cls-1,.cls-12,.cls-9{fill:#0054a4;}.cls-2,.cls-3,.cls-4,.cls-5,.cls-6,.cls-7{fill:none;}.cls-2,.cls-3,.cls-4,.cls-5,.cls-6{stroke:#0054a4;}.cls-2{stroke-width:0.5px;}.cls-3,.cls-4{stroke-linejoin:round;}.cls-3,.cls-4,.cls-5{stroke-width:0.37px;}.cls-4,.cls-5{stroke-linecap:round;}.cls-6{stroke-width:2px;}.cls-12,.cls-8,.cls-9{isolation:isolate;}.cls-12,.cls-9{font-size:10px;font-family:AGaramondPro-Semibold, Adobe Garamond Pro;font-weight:600;}.cls-9{letter-spacing:-0.02em;}.cls-10{letter-spacing:-0.02em;}.cls-11{letter-spacing:0em;}</style></defs><title>Lc_LDEI_Des_Moines_Greater Des Moines</title><path class="cls-1" d="M7.31,93.15c0-1.89,0-2.18-1.17-2.27l-.45,0c-.11-.07-.07-.4,0-.45,1,0,1.62,0,2.34,0s1.31,0,2.21,0a.36.36,0,0,1,0,.45l-.43,0c-1.06.09-1.1.38-1.1,2.27v6.27c0,1.13.05,1.6.38,2,.2.2.54.41,2,.41s1.91-.07,2.2-.23a3.9,3.9,0,0,0,1.19-1.78c.11-.09.45,0,.45.11a13.87,13.87,0,0,1-.76,2.52c-.92,0-2.63-.05-4.48-.05H8.07c-.76,0-1.33,0-2.34.05-.11-.05-.14-.34,0-.45l.54,0c1-.11,1.08-.36,1.08-2.25Z"/><path class="cls-1" d="M17,97.72c-.47,0-.49,0-.49.49,0,1.82,1.06,3.37,3,3.37a2,2,0,0,0,1.66-.88.23.23,0,0,1,.32.22,3.15,3.15,0,0,1-2.83,1.67,3.21,3.21,0,0,1-2.61-1.19,3.83,3.83,0,0,1-.76-2.34A3.78,3.78,0,0,1,18.93,95a2.36,2.36,0,0,1,2.56,2.14,1.25,1.25,0,0,1-.07.47c-.05.11-.31.13-1.06.13H17Zm1.12-.54c1.33,0,1.73-.07,1.87-.18s.11-.11.11-.34c0-.5-.34-1.13-1.39-1.13a2.12,2.12,0,0,0-2,1.57s0,.09.13.09h1.28Z"/><path class="cls-1" d="M26.48,95.31a4.26,4.26,0,0,1,.29,1.46.3.3,0,0,1-.43,0,1.76,1.76,0,0,0-1.58-1.31,1.06,1.06,0,0,0-1.15,1.1c0,.74.76,1.13,1.39,1.49.95.54,1.84,1.15,1.84,2.43s-1.26,2-2.59,2a3,3,0,0,1-1.93-.54,5.59,5.59,0,0,1-.22-1.82.3.3,0,0,1,.41,0c.31,1,.88,1.85,1.91,1.85a1.11,1.11,0,0,0,1.21-1.15c0-.83-.72-1.28-1.39-1.66-1-.59-1.78-1.22-1.78-2.21,0-1.31,1.08-2,2.45-2A3.08,3.08,0,0,1,26.48,95.31Z"/><path class="cls-1" d="M33.26,92.78c0-1.26-.09-1.64-.85-1.75L32,91c-.14-.09-.16-.38,0-.45,1.53-.09,3-.14,4.52-.14a11.34,11.34,0,0,1,4,.54,5.4,5.4,0,0,1,3.66,5.31A5.92,5.92,0,0,1,41,101.61a8.7,8.7,0,0,1-4,.86c-1.15,0-2.3-.14-2.93-.14s-1.4,0-2.25,0c-.11,0-.14-.34,0-.45l.41-.05c1-.14,1.08-.36,1.08-2.25Zm1.48,6.43a3.3,3.3,0,0,0,.36,2c.4.56,1.08.74,2.21.74,3.49,0,5.06-2.29,5.06-5.64,0-2-1-5.33-5.67-5.33a4,4,0,0,0-1.78.25c-.14.11-.18.56-.18,1.37Z"/><path class="cls-1" d="M48.37,98.6c.27-.09.31-.25.31-.52l0-.83c0-.67-.2-1.57-1.31-1.57-.5,0-1.12.25-1.15.81,0,.29,0,.5-.18.61a1.91,1.91,0,0,1-1,.34.23.23,0,0,1-.25-.25c0-.94,2-2.21,3.35-2.21s1.93.76,1.87,2.11l-.11,3.13c0,.83.13,1.57.83,1.57a1,1,0,0,0,.45-.11c.09-.05.18-.13.23-.13s.13.11.13.23a1.89,1.89,0,0,1-1.51.79,1.42,1.42,0,0,1-1.17-.56c-.07-.11-.18-.25-.29-.25a2.63,2.63,0,0,0-.7.36,2.63,2.63,0,0,1-1.3.45,1.85,1.85,0,0,1-1.26-.41,1.71,1.71,0,0,1-.56-1.26c0-.7.34-1.12,1.49-1.53Zm-1.12,3.17a2,2,0,0,0,1.1-.45c.22-.21.22-.47.23-.85l0-1.06c0-.2-.07-.23-.18-.23a3.34,3.34,0,0,0-.74.18c-1.06.36-1.58.63-1.58,1.33A1.08,1.08,0,0,0,47.25,101.77Z"/><path class="cls-1" d="M62.23,97.7c0-1.22-.54-1.85-1.67-1.85a2,2,0,0,0-1.5.63c-.22.27-.27.45-.27,1.08v2.75c0,1.3,0,1.48.69,1.57l.38.05a.31.31,0,0,1,0,.45c-.54,0-1.06,0-1.69,0s-1.13,0-1.64,0a.33.33,0,0,1,0-.45l.32-.05c.67-.11.68-.27.68-1.57V97.7c0-1.21-.54-1.85-1.66-1.85a1.9,1.9,0,0,0-1.51.65,1.4,1.4,0,0,0-.27,1v2.79c0,1.3,0,1.46.68,1.57l.32,0a.31.31,0,0,1,0,.45c-.49,0-1,0-1.64,0s-1.19,0-1.75,0c-.13,0-.16-.36,0-.45l.43,0c.67-.09.68-.27.68-1.57V97.17c0-.7,0-.79-.49-1.12L52,95.94c-.07-.07-.07-.27,0-.32a9.67,9.67,0,0,0,1.8-.88.22.22,0,0,1,.2.13,8,8,0,0,0,0,.85.19.19,0,0,0,.2.2A4.29,4.29,0,0,1,56.57,95a2.06,2.06,0,0,1,1.91,1.06.58.58,0,0,0,.45-.14A4.54,4.54,0,0,1,61.38,95a2,2,0,0,1,2.14,2.23v3.1c0,1.3,0,1.48.68,1.57l.43,0a.31.31,0,0,1,0,.45c-.59,0-1.12-.05-1.75-.05s-1.13,0-1.64.05a.33.33,0,0,1,0-.45l.32,0c.67-.11.68-.27.68-1.57V97.7Z"/><path class="cls-1" d="M66.44,97.72c-.47,0-.49,0-.49.49,0,1.82,1.06,3.37,3,3.37a2,2,0,0,0,1.66-.88.23.23,0,0,1,.32.22,3.15,3.15,0,0,1-2.83,1.67,3.21,3.21,0,0,1-2.61-1.19,3.83,3.83,0,0,1-.76-2.34A3.78,3.78,0,0,1,68.34,95a2.36,2.36,0,0,1,2.56,2.14,1.25,1.25,0,0,1-.07.47c0,.11-.31.13-1.06.13H66.44Zm1.12-.54c1.33,0,1.73-.07,1.87-.18s.11-.11.11-.34c0-.5-.34-1.13-1.39-1.13a2.12,2.12,0,0,0-2,1.57s0,.09.12.09h1.29Z"/><path class="cls-1" d="M75.89,95.31a4.26,4.26,0,0,1,.29,1.46.3.3,0,0,1-.43,0,1.76,1.76,0,0,0-1.58-1.31A1.06,1.06,0,0,0,73,96.61c0,.74.76,1.13,1.39,1.49,1,.54,1.84,1.15,1.84,2.43s-1.26,2-2.59,2a3,3,0,0,1-1.93-.54,5.59,5.59,0,0,1-.22-1.82.3.3,0,0,1,.41,0c.31,1,.88,1.85,1.91,1.85A1.11,1.11,0,0,0,75,100.9c0-.83-.72-1.28-1.39-1.66-1-.59-1.78-1.22-1.78-2.21,0-1.31,1.08-2,2.45-2A3.08,3.08,0,0,1,75.89,95.31Z"/><path class="cls-1" d="M88.36,99.7c0,1.42,0,2.09.52,2.09a3.05,3.05,0,0,0,.78-.18c.12,0,.14.49,0,.58a13.61,13.61,0,0,0-2.38.58c-.11,0-.2,0-.2-.14v-.31a1.82,1.82,0,0,0,0-.56H87a3.74,3.74,0,0,1-2.27.83,3.31,3.31,0,0,1-3.33-3.46A4.09,4.09,0,0,1,85.71,95a3.82,3.82,0,0,1,1.21.16c.09,0,.11-.11.11-.25V92.18c0-1.06,0-1.17-.56-1.49l-.18-.11a.27.27,0,0,1,0-.36,11.39,11.39,0,0,0,1.94-.76.21.21,0,0,1,.18.11c0,.54,0,1.44,0,2.23ZM87,97a1,1,0,0,0-.2-.7,1.87,1.87,0,0,0-1.51-.76c-1.64,0-2.48,1.42-2.48,3s.92,3.19,2.68,3.19a2.25,2.25,0,0,0,1.39-.5,1.09,1.09,0,0,0,.13-.67V97Z"/><path class="cls-1" d="M92.14,91.45A2.67,2.67,0,0,1,90,93.9a.27.27,0,0,1-.13-.38c.67-.31,1.37-.81,1.37-1.55a1,1,0,0,0-.9-1,.48.48,0,0,1-.49-.5.75.75,0,0,1,.86-.74A1.63,1.63,0,0,1,92.14,91.45Z"/><path class="cls-1" d="M94.72,93.15c0-1.87,0-2.14-1.1-2.27l-.29,0c-.11-.07-.07-.4,0-.45.77,0,1.39,0,2.12,0h3.38c1.15,0,2.21,0,2.43,0a19.4,19.4,0,0,1,.29,2.39.36.36,0,0,1-.45,0c-.27-.85-.43-1.48-1.37-1.71A8.46,8.46,0,0,0,98,91h-1.3c-.54,0-.54,0-.54.72v3.6c0,.5,0,.5.59.5h1a6.76,6.76,0,0,0,1.53-.11c.22-.07.34-.18.43-.63l.14-.74c.09-.11.4-.11.47,0,0,.43-.07,1.13-.07,1.82s.07,1.33.07,1.73c-.07.13-.38.13-.47,0l-.16-.7a.77.77,0,0,0-.56-.68,6.13,6.13,0,0,0-1.39-.09h-1c-.54,0-.59,0-.59.49v2.54c0,1,0,1.57.34,1.87s.59.41,2.18.41a5.18,5.18,0,0,0,2.3-.27,4.57,4.57,0,0,0,1.28-1.75.32.32,0,0,1,.45.13,16.29,16.29,0,0,1-.81,2.5c-1.62,0-3.22,0-4.83,0H95.47c-.77,0-1.39,0-2.45,0-.11,0-.14-.34,0-.45l.59-.05c1-.09,1.12-.36,1.12-2.25V93.15Z"/><path class="cls-1" d="M107.59,95.31a4.26,4.26,0,0,1,.29,1.46.3.3,0,0,1-.43,0,1.76,1.76,0,0,0-1.58-1.31,1.06,1.06,0,0,0-1.15,1.1c0,.74.76,1.13,1.39,1.49,1,.54,1.84,1.15,1.84,2.43s-1.26,2-2.59,2a3,3,0,0,1-1.93-.54,5.59,5.59,0,0,1-.22-1.82.3.3,0,0,1,.41,0c.31,1,.88,1.85,1.91,1.85a1.11,1.11,0,0,0,1.21-1.15c0-.83-.72-1.28-1.39-1.66-1-.59-1.78-1.22-1.78-2.21,0-1.31,1.08-2,2.45-2A3.11,3.11,0,0,1,107.59,95.31Z"/><path class="cls-1" d="M114.81,95.29a1,1,0,0,1,.27.72c0,.32-.18.67-.4.67a.31.31,0,0,1-.25-.13,2.44,2.44,0,0,0-1.8-1,2.6,2.6,0,0,0-2.48,2.9,3,3,0,0,0,2.9,3.08,2.21,2.21,0,0,0,2-1.08.28.28,0,0,1,.32.25,3.28,3.28,0,0,1-3,1.84,3.52,3.52,0,0,1-2.47-.92,3.58,3.58,0,0,1-1-2.66,4,4,0,0,1,4.36-4A4.21,4.21,0,0,1,114.81,95.29Z"/><path class="cls-1" d="M123.25,98.71a3.68,3.68,0,0,1-3.8,3.87,3.56,3.56,0,0,1-3.69-3.71A3.78,3.78,0,0,1,119.6,95,3.6,3.6,0,0,1,123.25,98.71Zm-3.87-3.19c-1.19,0-2.07,1.13-2.07,3.12,0,1.64.74,3.4,2.32,3.4s2.07-1.66,2.07-3C121.7,97.47,121.09,95.52,119.38,95.52Z"/><path class="cls-1" d="M125,96.51c0-.49,0-.52-.36-.52H124a.24.24,0,0,1,0-.34l.77-.38a.41.41,0,0,0,.27-.36,7.16,7.16,0,0,1,.61-2.79,3.66,3.66,0,0,1,3.31-2.23,2.62,2.62,0,0,1,2.07.81,3.79,3.79,0,0,1,2.88-1.24c1.22,0,2.23.65,2.23,1.4a.74.74,0,0,1-.74.74.52.52,0,0,1-.47-.27,2.12,2.12,0,0,0-1.69-1.19c-1.4,0-2.05,1.48-2.05,4.34v.2c0,.45,0,.56.34.56h2a9.34,9.34,0,0,0,2.36-.27.24.24,0,0,1,.18.09c0,.65-.07,1.51-.07,2.25v3c0,1.3,0,1.48.68,1.57l.38,0a.31.31,0,0,1,0,.45c-.54,0-1.06,0-1.69,0s-1.19,0-1.69,0a.33.33,0,0,1,0-.45l.38,0c.67-.09.68-.27.68-1.57V97.19c0-1.1-.13-1.19-.9-1.19h-2.25c-.31,0-.34.13-.34.56v3.76c0,1.3,0,1.51.69,1.57l.58,0c.12.09.09.4,0,.45-.74,0-1.26,0-1.89,0s-1.19,0-1.73,0a.33.33,0,0,1,0-.45l.41,0c.67-.09.68-.27.68-1.57v-3.8c0-.49,0-.52-.36-.52h-2.83c-.31,0-.31,0-.31.52v3.8c0,1.3,0,1.51.68,1.57l.65,0a.31.31,0,0,1,0,.45c-.81,0-1.33,0-2,0s-1.19,0-1.73,0c-.13,0-.16-.36,0-.45l.41,0c.67-.09.68-.27.68-1.57V96.51Zm4.56-1.28a.3.3,0,0,0,.27-.32,9.71,9.71,0,0,1,.47-3.1,1.92,1.92,0,0,0-1.8-1.3c-2,0-2.16,2.23-2.16,4.12v.09c0,.49,0,.5.52.5h2.7Z"/><path class="cls-1" d="M139.54,97.72c-.47,0-.49,0-.49.49,0,1.82,1.06,3.37,3,3.37a2,2,0,0,0,1.66-.88.23.23,0,0,1,.32.22,3.15,3.15,0,0,1-2.83,1.67,3.21,3.21,0,0,1-2.61-1.19,3.83,3.83,0,0,1-.76-2.34A3.78,3.78,0,0,1,141.44,95,2.36,2.36,0,0,1,144,97.13a1.25,1.25,0,0,1-.07.47c-.05.11-.31.13-1.06.13h-3.33Zm1.11-.54c1.33,0,1.73-.07,1.87-.18s.11-.11.11-.34c0-.5-.34-1.13-1.39-1.13a2.12,2.12,0,0,0-2,1.57s0,.09.13.09h1.28Z"/><path class="cls-1" d="M145.82,97.16c0-.7,0-.79-.49-1.12l-.16-.11c-.07-.07-.07-.27,0-.32a13.68,13.68,0,0,0,1.82-.88c.09,0,.14,0,.14.13v1c0,.09,0,.14,0,.16a3.64,3.64,0,0,1,2-1.08.75.75,0,0,1,.81.72.81.81,0,0,1-.78.83.66.66,0,0,1-.4-.13,1.48,1.48,0,0,0-.79-.29.8.8,0,0,0-.65.36,2.74,2.74,0,0,0-.23,1.39v2.45c0,1.3,0,1.51.72,1.57l.65.05c.12.09.09.4,0,.45-.85,0-1.37,0-2,0s-1.19,0-1.66,0c-.13,0-.16-.36,0-.45l.34-.05c.67-.11.68-.27.68-1.57V97.16Z"/><path class="cls-1" d="M36.13,118c0,1,.08,1,.5,1l.2,0a.2.2,0,0,1,0,.26q-.6,0-1.2,0c-.4,0-.82,0-1.21,0a.2.2,0,0,1,0-.26l.2,0c.42,0,.5-.08.5-1v-3.35c0-1-.08-1-.5-1l-.2,0a.2.2,0,0,1,0-.26c.4,0,.8,0,1.21,0s.8,0,1.2,0a.2.2,0,0,1,0,.26l-.2,0c-.42,0-.5.08-.5,1Z"/><path class="cls-1" d="M44.58,117.8c0,.27,0,1.38,0,1.58a.37.37,0,0,1-.31.13c-.14-.19-.41-.5-1-1.23l-2.11-2.4a13,13,0,0,0-1-1.13s0,.1,0,.58v1.75a5.57,5.57,0,0,0,.16,1.77.56.56,0,0,0,.46.23l.2,0c.08.06.07.23,0,.26-.33,0-.68,0-1,0s-.62,0-.94,0a.19.19,0,0,1,0-.26l.2,0c.17,0,.33-.06.4-.21a6.86,6.86,0,0,0,.12-1.77V115c0-.7,0-.85-.3-1.11a1.54,1.54,0,0,0-.48-.18l-.14,0c-.06,0,0-.23,0-.26a10.18,10.18,0,0,0,1.06,0l.62,0a11.28,11.28,0,0,0,1.45,1.86l.9,1c.38.41,1.21,1.37,1.3,1.42s0-.07,0-.22v-1.76a5.24,5.24,0,0,0-.17-1.77.55.55,0,0,0-.45-.22l-.21,0c-.08-.06-.07-.23,0-.26.35,0,.68,0,1,0s.62,0,1,0a.19.19,0,0,1,0,.26l-.21,0c-.17,0-.32.06-.39.21a6.86,6.86,0,0,0-.12,1.77v2.15Z"/><path class="cls-1" d="M48.87,114.14c0-.38,0-.4-.24-.4h-.5c-.83,0-1.07.1-1.4.83a.23.23,0,0,1-.29-.06c.15-.49.29-1,.35-1.36a.11.11,0,0,1,.1,0,.1.1,0,0,1,.09,0c0,.23.17.23.78.23h3.67c.44,0,.58,0,.68-.23a.25.25,0,0,1,.11,0,.19.19,0,0,1,.12,0,6.77,6.77,0,0,0-.14,1.43.22.22,0,0,1-.28,0c-.12-.7-.29-.87-1.25-.87h-.51c-.23,0-.24,0-.24.4V118c0,1,.08,1,.5,1l.32,0a.2.2,0,0,1,0,.26l-1.32,0-1.4,0a.2.2,0,0,1,0-.26l.38,0c.42,0,.5-.06.5-1v-3.89Z"/><path class="cls-1" d="M54.49,114.68c0-1-.08-1-.5-1l-.14,0a.2.2,0,0,1,0-.26c.34,0,.77,0,1.16,0h1.72c.58,0,1.1,0,1.22,0,0,.15.09.86.14,1.25a.26.26,0,0,1-.29,0c-.14-.52-.28-.74-.57-.82a3.31,3.31,0,0,0-.72-.08h-.6c-.39,0-.39,0-.39.53v1.52c0,.23,0,.24.22.24h.43c.78,0,.92,0,1-.4l.06-.31a.24.24,0,0,1,.29,0c0,.24,0,.57,0,.9s0,.66,0,1c0,.06-.22.06-.29,0l-.06-.36c-.06-.38-.22-.4-1-.4h-.43c-.21,0-.22,0-.22.24v1.14a1.67,1.67,0,0,0,.15.94c.11.12.26.19,1,.2,1.14,0,1.34-.24,1.66-1a.22.22,0,0,1,.29.05,5.27,5.27,0,0,1-.38,1.3c-.4,0-1.17,0-2.22,0H55c-.4,0-1,0-1.35,0a.2.2,0,0,1,0-.26l.33,0c.42,0,.5-.07.5-1Z"/><path class="cls-1" d="M61.06,114.74c0-.87,0-1-.43-1l-.23,0a.18.18,0,0,1,0-.25c.57,0,1.33-.08,2.07-.08a3.74,3.74,0,0,1,1.71.31A1.41,1.41,0,0,1,65,115a1.55,1.55,0,0,1-1.08,1.42s0,.1,0,.15a10.63,10.63,0,0,0,1.59,2.33,1.2,1.2,0,0,0,.62.28.19.19,0,0,1,0,.18,2.35,2.35,0,0,1-.59,0,2,2,0,0,1-1.88-1.19c-.24-.38-.5-.87-.71-1.22a.51.51,0,0,0-.56-.31c-.27,0-.28,0-.28.2V118c0,1,.08,1,.5,1l.2,0a.2.2,0,0,1,0,.26q-.6,0-1.2,0l-1.22,0a.18.18,0,0,1,0-.26l.2,0c.42,0,.5-.08.5-1v-3.28Zm1,1.29c0,.29,0,.31.43.31a1.13,1.13,0,0,0,1.29-1.29,1.24,1.24,0,0,0-1.24-1.33c-.47,0-.48,0-.48.44Z"/><path class="cls-1" d="M73,117.8c0,.27,0,1.38,0,1.58a.37.37,0,0,1-.31.13c-.14-.19-.41-.5-1.05-1.23l-2.11-2.4a13,13,0,0,0-1-1.13s0,.1,0,.58v1.75a5.57,5.57,0,0,0,.16,1.77.56.56,0,0,0,.46.23l.2,0c.08.06.07.23,0,.26-.33,0-.68,0-1,0s-.62,0-.94,0a.19.19,0,0,1,0-.26l.2,0c.17,0,.33-.06.4-.21a6.86,6.86,0,0,0,.12-1.77V115c0-.7,0-.85-.3-1.11a1.54,1.54,0,0,0-.48-.18l-.13,0c-.06,0,0-.23,0-.26a10.18,10.18,0,0,0,1.06,0l.62,0a11.28,11.28,0,0,0,1.45,1.86l.9,1c.38.41,1.22,1.37,1.31,1.42s0-.07,0-.22v-1.76a5.24,5.24,0,0,0-.17-1.77.53.53,0,0,0-.45-.22l-.21,0c-.08-.06-.07-.23,0-.26.35,0,.68,0,1,0s.62,0,1,0a.19.19,0,0,1,0,.26l-.21,0c-.17,0-.32.06-.39.21a6.34,6.34,0,0,0-.13,1.77Z"/><path class="cls-1" d="M76.81,117.12c-.23,0-.23,0-.31.24l-.37,1.08c-.18.53-.14.55.19.6l.26,0a.2.2,0,0,1,0,.26c-.29,0-.58,0-1,0s-.58,0-.89,0a.21.21,0,0,1,0-.26l.27,0c.26,0,.36-.12.49-.41s.25-.61.44-1.1l1.23-3.2a1.47,1.47,0,0,0,.17-.66,1.52,1.52,0,0,0,.63-.43.18.18,0,0,1,.15.07c.14.41.26.83.41,1.23l1.3,3.77c.21.6.25.66.71.75l.14,0a.2.2,0,0,1,0,.26c-.37,0-.7,0-1.17,0s-.78,0-1.1,0a.21.21,0,0,1,0-.26l.2,0c.32,0,.37-.1.23-.48l-.42-1.22c-.08-.24-.12-.24-.37-.24Zm1.08-.4c.25,0,.29,0,.22-.23l-.38-1.08a5.83,5.83,0,0,0-.25-.71h0a6.6,6.6,0,0,0-.27.71l-.38,1c-.09.26-.07.26.14.26Z"/><path class="cls-1" d="M83.77,114.14c0-.38,0-.4-.24-.4H83c-.83,0-1.07.1-1.4.83a.23.23,0,0,1-.29-.06c.15-.49.29-1,.35-1.36a.11.11,0,0,1,.1,0,.1.1,0,0,1,.09,0c0,.23.17.23.78.23h3.67c.44,0,.58,0,.68-.23a.25.25,0,0,1,.11,0,.19.19,0,0,1,.12,0,6.77,6.77,0,0,0-.14,1.43.22.22,0,0,1-.28,0c-.12-.7-.29-.87-1.25-.87h-.51c-.23,0-.24,0-.24.4V118c0,1,.08,1,.5,1l.32,0a.2.2,0,0,1,0,.26l-1.32,0-1.4,0a.2.2,0,0,1,0-.26l.38,0c.42,0,.5-.06.5-1v-3.89Z"/><path class="cls-1" d="M90.62,118c0,1,.08,1,.5,1l.2,0a.2.2,0,0,1,0,.26q-.6,0-1.2,0c-.4,0-.82,0-1.22,0a.2.2,0,0,1,0-.26l.2,0c.42,0,.5-.08.5-1v-3.35c0-1-.08-1-.5-1l-.2,0a.2.2,0,0,1,0-.26c.4,0,.8,0,1.22,0s.8,0,1.2,0a.2.2,0,0,1,0,.26l-.2,0c-.42,0-.5.08-.5,1Z"/><path class="cls-1" d="M99.7,116.38a3.06,3.06,0,0,1-3.17,3.1,3,3,0,0,1-3.21-3,3.1,3.1,0,0,1,3.22-3.2A3,3,0,0,1,99.7,116.38Zm-5.15-.2c0,1.24.53,2.94,2.07,2.94,1,0,1.85-.77,1.85-2.58,0-1.36-.61-2.93-2-2.93C95.53,113.6,94.55,114.26,94.55,116.18Z"/><path class="cls-1" d="M107.09,117.8c0,.27,0,1.38,0,1.58a.37.37,0,0,1-.31.13c-.14-.19-.41-.5-1-1.23l-2.11-2.4a13,13,0,0,0-1-1.13s0,.1,0,.58v1.75a5.57,5.57,0,0,0,.16,1.77.56.56,0,0,0,.46.23l.2,0c.08.06.07.23,0,.26-.33,0-.68,0-1,0s-.62,0-.94,0a.19.19,0,0,1,0-.26l.2,0c.17,0,.33-.06.4-.21a6.86,6.86,0,0,0,.12-1.77V115c0-.7,0-.85-.3-1.11a1.54,1.54,0,0,0-.48-.18l-.13,0c-.06,0,0-.23,0-.26a10.18,10.18,0,0,0,1.06,0l.62,0a11.28,11.28,0,0,0,1.45,1.86l.9,1c.38.41,1.22,1.37,1.31,1.42s0-.07,0-.22v-1.76a5.24,5.24,0,0,0-.17-1.77.53.53,0,0,0-.45-.22l-.21,0c-.08-.06-.07-.23,0-.26.35,0,.68,0,1,0s.62,0,1,0a.19.19,0,0,1,0,.26l-.21,0c-.17,0-.32.06-.39.21a6.34,6.34,0,0,0-.13,1.77Z"/><path class="cls-1" d="M110.86,117.12c-.23,0-.23,0-.31.24l-.37,1.08c-.18.53-.14.55.19.6l.26,0a.2.2,0,0,1,0,.26c-.29,0-.59,0-1,0s-.58,0-.89,0a.21.21,0,0,1,0-.26l.27,0c.26,0,.36-.12.49-.41s.25-.61.44-1.1l1.23-3.2a1.47,1.47,0,0,0,.17-.66,1.52,1.52,0,0,0,.63-.43.18.18,0,0,1,.15.07c.14.41.26.83.41,1.23l1.3,3.77c.21.6.25.66.71.75l.14,0a.2.2,0,0,1,0,.26c-.37,0-.7,0-1.17,0s-.78,0-1.1,0a.21.21,0,0,1,0-.26l.2,0c.32,0,.37-.1.23-.48l-.42-1.22c-.08-.24-.12-.24-.37-.24Zm1.08-.4c.25,0,.29,0,.22-.23l-.38-1.08a5.83,5.83,0,0,0-.25-.71h0a6.6,6.6,0,0,0-.27.71l-.38,1c-.09.26-.07.26.14.26Z"/><path class="cls-1" d="M118.09,117.84a1.65,1.65,0,0,0,.15.93c.11.12.25.2,1,.2,1,0,1.14,0,1.56-1a.25.25,0,0,1,.28,0,7.85,7.85,0,0,1-.38,1.3c-.38,0-1.15,0-2.16,0h-.94c-.46,0-.91,0-1.29,0-.07,0-.1-.21,0-.26l.27,0c.42-.07.5-.08.5-1v-3.35c0-.94-.08-1-.5-1l-.25,0a.19.19,0,0,1,0-.26l1.27,0q.6,0,1.2,0a.18.18,0,0,1,0,.26l-.2,0c-.42.07-.5.09-.5,1v3.17Z"/><line class="cls-2" x1="5.86" y1="107.41" x2="149.17" y2="107.41"/><path class="cls-3" d="M50.07,61.13a19.27,19.27,0,0,1-2.24-5.86c0-.33-1.64-7.92,4-8.19a5.44,5.44,0,0,1,4.38,2l.36.53s.3.62,0,.95-.39.58-1.74-.94-2.31-.45-2.31-.45c.34,0,.9.73.9.73L53,49.83a2.45,2.45,0,0,0-2.64.62c.45-.17.84.39.84.39a1.7,1.7,0,0,0-1.58,1.91l.56.23c-.17.34-.34,2.25,0,1.52l0,0a1.49,1.49,0,0,1,1.16-.74c-.51.17-.34,1-.34,1l.73-.23c.73-.23.79.39.79.39-1.52,1-1.07,2-1.07,2a1.3,1.3,0,0,1,1-.11c-1.63.68-1.4,3.82-1.29,3.43s.9-.73.9-.73c-1,1.07,0,3.27.11,2.83s.66-.69.66-.69c.28,2.08,1.19,2.63,1.19,2.63L55.11,63l.22,1c1-.23,1.69-2.42,1.69-2.42l.45,1.29a2.15,2.15,0,0,0,.72-1.73l0-1.36c-.06-1.91.51-1.8.73-1.74s.45.67.34,1.57-.39,2.53-.45,3.43.56,2.19.56,1.8.56-1,.56-1l-.12.73a2.35,2.35,0,0,0,1,1.35A2.23,2.23,0,0,1,61,65,5.52,5.52,0,0,0,63,67.32c.06-.67.17-1.35.17-1.35.22.62,1.91,1.86,1.91,1.86a3.94,3.94,0,0,1,.06-1.74c.39.45,1.18,1.52,1.18,1.52.28-.11.56-1.91.56-1.91a2.09,2.09,0,0,0,.67.67,10.6,10.6,0,0,0,.5-2.47c.23.05.45.9.45.9a9.05,9.05,0,0,0,.17-2.87c.34,0,.67.56.67.56a5.77,5.77,0,0,0-.5-3.32l.79.68c.17-.5-.79-2-.62-1.8s.67.06.67.06l-.21-.51a4.06,4.06,0,0,0-1.07-1.12l.79-.17c-.5-.68-1.11-1-2.53-1.07S64.83,54.17,65,53.67s.79-.73,2,.06a10.44,10.44,0,0,0,2.48,1.18,8.77,8.77,0,0,0-.11-1l1.41.62a8.11,8.11,0,0,0-.62-2.36c.56.61.82.61.92.58a2.57,2.57,0,0,1,0-.41,1.88,1.88,0,0,0-.5-1.18l.73-.11c-.26-1.53-2.71-1.63-2.71-1.63a2.49,2.49,0,0,1,.64-.55c.34-.17,0-.35,0-.35-.84-.84-2.59-.56-2.42-.9a2.09,2.09,0,0,1,.65-.64c-1.64-.52-2.28.07-2.28.07l.39-.56a1,1,0,0,0-.32-1.07,3.26,3.26,0,0,1-2.1,1.29,1.66,1.66,0,0,0,0-2.25l-.56.33c0-.45-.56-1.74-.79-1.24a1.9,1.9,0,0,1-.79.79c.34-.84-.85-2.3-.85-2.3s.07.13-.73.9a4.72,4.72,0,0,0-1.07,1.4A1.21,1.21,0,0,0,58,43.6a3.57,3.57,0,0,0-.84,2.25L57.08,45s.05-1.64-.4.44a2.68,2.68,0,0,0,1.41,3.15c.34.11,1.29.56.79,1.12s-1.8-.8-1.8-.8c-2.47-3.08-5.2-2.63-5.2-2.63-6.66,0-5,9.06-5,9.06a33.28,33.28,0,1,1,63.88-13.08,34.34,34.34,0,0,1-2.66,13.09s1.61-9.07-5.06-9.07c0,0-2.72-.45-5.19,2.63,0,0-1.29,1.36-1.8.8s.45-1,.79-1.12a2.67,2.67,0,0,0,1.4-3.15c-.45-2.08-.39-.44-.39-.44l-.11.89a3.59,3.59,0,0,0-.84-2.25,1.21,1.21,0,0,0-.34.73,5,5,0,0,0-1.07-1.4c-.8-.76-.73-.9-.73-.9s-1.18,1.46-.84,2.3a1.89,1.89,0,0,1-.79-.79c-.22-.51-.84.79-.79,1.24l-.56-.33a1.66,1.66,0,0,0,0,2.25,3.26,3.26,0,0,1-2.1-1.29.9.9,0,0,0-.32,1.07l.4.56s-.64-.59-2.28-.07a2.09,2.09,0,0,1,.65.64c.17.33-1.58,0-2.42.9,0,0-.29.18,0,.35a2.31,2.31,0,0,1,.64.55s-2.45.11-2.7,1.63l.73.11s-.67,1.06-.58,1.26.55.09,1-.24a8.11,8.11,0,0,0-.62,2.36l1.41-.62a8.77,8.77,0,0,0-.11,1A10.64,10.64,0,0,0,88,53.74c1.18-.79,1.8-.56,2-.06s-.27,1.46-1.68,1.57-2,.39-2.53,1.07l.79.17a4.22,4.22,0,0,0-1.07,1.12l-.22.51s.51.11.68-.06-.79,1.29-.62,1.8l.79-.68a5.74,5.74,0,0,0-.51,3.32s.34-.56.68-.56a9.05,9.05,0,0,0,.17,2.87s.22-.84.45-.9a10.71,10.71,0,0,0,.51,2.47,2,2,0,0,0,.67-.67s.28,1.8.56,1.91c0,0,.79-1.07,1.18-1.52a4.12,4.12,0,0,1,.06,1.74S91.5,66.6,91.73,66c0,0,.11.67.17,1.35A5.52,5.52,0,0,0,94,65a2.23,2.23,0,0,1,.17,1,2.31,2.31,0,0,0,1-1.35L95,63.84s.56.56.56,1,.62-.9.56-1.8-.34-2.53-.45-3.43.11-1.52.34-1.57.79-.17.73,1.74l0,1.36a2.13,2.13,0,0,0,.71,1.73l.45-1.29s.73,2.19,1.69,2.42l.23-1,1.15,1.28s.84-.6,1.12-2.69c0,0,.55.27.66.69s1.07-1.76.11-2.83c0,0,.79.34.9.73s.34-2.75-1.3-3.43a1.32,1.32,0,0,1,1,.11s.45-1-1.07-2c0,0,.06-.62.79-.39l.73.23s.17-.85-.34-1a1.49,1.49,0,0,1,1.16.74.08.08,0,0,1,0,0c.34.73.17-1.18,0-1.52l.57-.23a1.69,1.69,0,0,0-1.58-1.91s.39-.56.84-.39a2.45,2.45,0,0,0-2.64-.62l-.45.06s.56-.73.9-.73c0,0-.82-1.21-2.3.45s-1.55,1.17-1.74.94,0-1,0-1l.36-.53a5.44,5.44,0,0,1,4.38-2c5.62.27,4,7.86,4,8.19a19.3,19.3,0,0,1-2.22,5.88c-5.27,9-16.19,14.34-27.36,14.34A33.34,33.34,0,0,1,50.07,61.13"/><path class="cls-4" d="M55.39,58.5s.27.35.44.62a5.35,5.35,0,0,1,.35,1.77m-2.91-1.81a1.87,1.87,0,0,1-.05,1.33m2.53-3.59-.53.4c-.88.53-.88.4-1.15.62a21.87,21.87,0,0,0-1.46,2.39m3.45-5.35a8.39,8.39,0,0,1-1.28.66c-.66.26-.75.22-.84.35a6.45,6.45,0,0,0-.8,1m3.09-2.64s1.38,1.61,1.33,2.64m.89-5.57s-2.3,2.26-2.39,3.54-.31,1.15-.31,2.21a.86.86,0,0,0,.13.44,6.2,6.2,0,0,0-.49,1c-.18.49-.4.88-.58,1.46s-.09.66-.26,1.15a5.69,5.69,0,0,0-.18,1.46M68.5,52.88s-2.92-.75-3.71-2.36m2.11-1.88A2,2,0,0,0,66,50.05m-2.52,2.53s-1.29-.9-1.43-1.49M65.35,48s-2.74.81-3.28,3m7.4-.69s-2.12-.93-3.32-.35a17.3,17.3,0,0,1-4.34,1.11c-1.72.31-2.47-.17-3.12.17m3.87-3.71a4.07,4.07,0,0,0-1.85.86m.44-2.94s-.36,1.42-.83,1.76M58.54,45A9.36,9.36,0,0,0,60,46.42m-.3-2.25A9.61,9.61,0,0,0,59.9,46a8.71,8.71,0,0,0,.81,2.07c.17.35-.67,2-1.37,2.52s-.66.67-.66.67m-5.76,2.44a2.73,2.73,0,0,1,1.46-1.19m-.27-1.95a6.8,6.8,0,0,0,1.77,1.73m-4.78,0a3,3,0,0,1,1.59-.55M63.23,64.52a2,2,0,0,1,.13-1.59,1.64,1.64,0,0,0,.22-.93m.15-3.41v1a2.39,2.39,0,0,0-.31,1.19c0,.57.31,1.86.31,1.86A7,7,0,0,1,64,65m2.83-1.27a5.13,5.13,0,0,0-1.33-1.37m-3.92-7.11.69,1.45s1.37,1.72,1.64,2.12a16.77,16.77,0,0,1,1.6,3.54,3.12,3.12,0,0,0,.71,2.7m-6.12-3a6.12,6.12,0,0,1,1.5-2.3m.09,3.1s.18-1.24.22-1.77a3.64,3.64,0,0,0-.31-1.33l-.27-3a4,4,0,0,0,.14-.62c0-.27.08-.89.08-.89m3.9,1.09s.71,2.83,1.56,3.44m1.14-2.09s-.39.19-1.33-.57c-1.11-.91-1.46-.8-1.46-.8a8.73,8.73,0,0,1-3.81-1.06l-2.52-3.36-.4-.62a1.4,1.4,0,0,0-.93.31,7.93,7.93,0,0,1-3.41.93,9.64,9.64,0,0,1-1.9-.89A1.75,1.75,0,0,0,52,51.2M98.7,60.89a5.35,5.35,0,0,1,.35-1.77c.18-.27.44-.62.44-.62m2.18,1.9a1.93,1.93,0,0,1,0-1.33m.67,1.16a20.42,20.42,0,0,0-1.46-2.39c-.27-.22-.27-.09-1.15-.62l-.53-.4m2.61.09c0-.22-.71-.88-.79-1s-.18-.09-.84-.35a9.56,9.56,0,0,1-1.28-.66m-1.52,2c0-1,1.33-2.64,1.33-2.64m1.86,8.3a5.69,5.69,0,0,0-.18-1.46c-.18-.49-.09-.57-.26-1.15s-.4-1-.58-1.46a5,5,0,0,0-.49-1,.86.86,0,0,0,.13-.44c0-1.06-.22-.93-.31-2.21s-2.39-3.54-2.39-3.54m-6.33-.81c-.79,1.6-3.71,2.36-3.71,2.36m2.48-2.84A2,2,0,0,0,88,48.64m4.84,2.44c-.13.59-1.43,1.49-1.43,1.49m1.42-1.52c-.54-2.22-3.27-3-3.27-3m6.65,3.26c-.65-.34-1.39.14-3.11-.17A17.41,17.41,0,0,1,88.75,50c-1.2-.57-3.32.35-3.32.35m8.74-1.91a4,4,0,0,0-1.84-.86m2.25-.32c-.48-.34-.83-1.76-.83-1.76m1.16.92A8.93,8.93,0,0,0,96.36,45m-.13,6.28s0-.13-.67-.67S94,48.45,94.19,48.1A9.08,9.08,0,0,0,95,46a9.61,9.61,0,0,0,.21-1.86m5.31,8.36A2.73,2.73,0,0,1,102,53.72m-3-1.41a6.64,6.64,0,0,0,1.77-1.73m1.42,1.23a2.92,2.92,0,0,1,1.59.55M91.32,62a1.64,1.64,0,0,0,.22.93,2,2,0,0,1,.13,1.59m-.8.54a7,7,0,0,1,.31-2.39s.27-1.28.31-1.86a2.46,2.46,0,0,0-.31-1.19v-1m-1.81,3.79A5.49,5.49,0,0,0,88,63.76m.63,1.33a3.12,3.12,0,0,0,.71-2.7A16.28,16.28,0,0,1,91,58.85c.27-.4,1.64-2.12,1.64-2.12l.69-1.45m0,4.5a6,6,0,0,1,1.5,2.3m-1.45-6.81s0,.62.07.89a5.11,5.11,0,0,0,.15.62l-.27,3A3.43,3.43,0,0,0,93,61.12c0,.53.22,1.77.22,1.77m-5.31-3.11c.84-.6,1.55-3.44,1.55-3.44m13.5-5.14a1.59,1.59,0,0,0-.44.44,10.27,10.27,0,0,1-1.9.89,7.83,7.83,0,0,1-3.41-.93,1.4,1.4,0,0,0-.93-.31l-.4.62-2.52,3.36a8.58,8.58,0,0,1-3.81,1.06s-.34-.11-1.46.8c-.93.77-1.33.57-1.33.57"/><path class="cls-4" d="M78.92,50.74s.29,0,.42.06l1.55-3.13c-.12-.09-.23-.18-.34-.25Z"/><path class="cls-4" d="M91.15,26.9a.55.55,0,0,1-.45-.2L81,46.59l.35.24S91.09,27,91.15,26.9Z"/><path class="cls-4" d="M95.69,32.52a.48.48,0,0,1-.38-.29L82.53,47.81l.3.28Z"/><path class="cls-4" d="M73,48.65c-.09.11-.17.22-.25.34l2,2.43a1.43,1.43,0,0,1,.2-.23L74.11,50Z"/><path class="cls-4" d="M75.87,47.07a1.79,1.79,0,0,0-.42,0l.41,1.85c.24.79.42,1.4.57,1.87l.17,0c-.07-.45-.14-.88-.21-1.31Z"/><path class="cls-4" d="M75.52,50.82a1.32,1.32,0,0,1,.39-.1l-1.62-3.29-.34.25Z"/><path class="cls-5" d="M77.51,51.56a1.57,1.57,0,0,1,.75-.69c-.16-.45-.71-2.19-.16-3.13.44-.74,2-1.63,4.1,1.43a1.77,1.77,0,0,0,2.21.68,14.3,14.3,0,0,0-3.33-3.17c-2.18-1.5-3.65,1-3.65,1.25,0-.31-1.39-2.54-3.48-1.41a10.48,10.48,0,0,0-3.49,3.31,1.74,1.74,0,0,0,2.18-.66c2.12-3.08,3.67-2.17,4.1-1.43.64,1.08-.14,3-.14,3a1.71,1.71,0,0,1,.91.77"/><path class="cls-4" d="M79,49l-.4,1.81.16,0,1.53-3.51a2.07,2.07,0,0,0-.69-.21Z"/><path class="cls-4" d="M92.58,32.57c1.63-2.85,6.16-11.18,5.76-11.39S91.62,30.3,90.69,31.6c-1.1,1.52-5.71,9.56-9,15.47l.75.61C89.29,37.93,91.78,34,92.58,32.57Z"/><path class="cls-4" d="M99.5,39.1a17.84,17.84,0,0,0-5.5.76c-1.09.41-3.73,1.47-8.44,6.66-.79.87-1.46,1.63-2,2.27l.51.58A61.16,61.16,0,0,1,90.29,43c2.61-1.92,2.83-1.68,5.71-2a8.1,8.1,0,0,0,1-.17h-.07A17,17,0,0,0,99.5,39.1Z"/><path class="cls-4" d="M105.05,36.16c-1.44.2-3.73,1.71-5.55,3a17.85,17.85,0,0,1-2.62,1.65H97c.43,0,2.88,0,7.49-2.61,2.57-1.46,3.16-1,3.57-1C108,37.12,107.55,35.8,105.05,36.16Z"/><path class="cls-4" d="M55.3,39c-1.82-1.24-4.11-2.74-5.55-3-2.49-.36-3,1-3,1,.41.07,1-.43,3.57,1,4.6,2.61,7.06,2.63,7.48,2.61h.07A17.85,17.85,0,0,1,55.3,39Z"/><path class="cls-4" d="M78.12,47.73a0,0,0,0,1,0,0c0,.9-.06,1.7-.09,2.28.06.25.11.47.16.61s.48-2.71.6-3.49A1.54,1.54,0,0,0,78.12,47.73Z"/><path class="cls-4" d="M75.28,47a2.11,2.11,0,0,0-.69.22c.67,1.53,1.15,2.66,1.5,3.46h.14S75.49,47.69,75.28,47Z"/><path class="cls-4" d="M73.12,48.56c.32.46,1.94,2.55,1.94,2.55a1.9,1.9,0,0,1,.33-.22l-1.68-3A5.38,5.38,0,0,0,73.12,48.56Z"/><path class="cls-4" d="M72.34,49.52c1.06,1.29,2.2,2.77,2.2,2.77a2.27,2.27,0,0,1,0-.37,2.46,2.46,0,0,1,.12-.35s-1-1-2.09-2.35A1.56,1.56,0,0,1,72.34,49.52Z"/><path class="cls-4" d="M83.33,48.57c.59-.7,1.15-1.35,1.52-1.74,1.57-1.62,4.88-6,6-6.85a11.33,11.33,0,0,1,4.59-2.61c2.5-.58,5.18-1,7.2-3.37,1.59-1.87,1.34-1.68,1.34-1.68s-5.58,1.92-7.38,2.85a46.81,46.81,0,0,0-6.68,5c-.39.42-4.19,4.91-6.91,8.14Z"/><line class="cls-4" x1="59.42" y1="32.43" x2="54.8" y2="26.72"/><path class="cls-4" d="M53.62,24.84a4.74,4.74,0,0,0-.76-1.61"/><path class="cls-4" d="M54.79,25.88A7.36,7.36,0,0,0,54,23.51"/><path class="cls-4" d="M56,28.13a7.08,7.08,0,0,0-.48-4.24"/><path class="cls-4" d="M57.18,29.63a10.16,10.16,0,0,0-.43-4.51"/><path class="cls-4" d="M58.33,31.09A9.89,9.89,0,0,0,58,26.47"/><path class="cls-4" d="M53.16,25.1a4.56,4.56,0,0,1-1.33-1"/><path class="cls-4" d="M54.88,26.82a12.43,12.43,0,0,1-3-1.58"/><path class="cls-4" d="M55.93,28.15a7.46,7.46,0,0,1-4-1.38"/><path class="cls-4" d="M57.15,29.66a10.86,10.86,0,0,1-4.23-1.42"/><path class="cls-4" d="M58.32,31.1A10.51,10.51,0,0,1,54,29.73"/><path class="cls-4" d="M54.9,25.46s-.6,1.17,1,2.37A2,2,0,0,0,54.9,25.46Z"/><path class="cls-4" d="M56.17,27s-.62,1.2,1,2.4A2.07,2.07,0,0,0,56.17,27Z"/><path class="cls-4" d="M57.34,28.44s-.6,1.17,1,2.38A2.05,2.05,0,0,0,57.34,28.44Z"/><path class="cls-4" d="M58.58,30s-.6,1.18,1,2.38A2.06,2.06,0,0,0,58.58,30Z"/><path class="cls-4" d="M53.51,26.59s1.27-.35,2.13,1.44A2,2,0,0,1,53.51,26.59Z"/><path class="cls-4" d="M54.78,28.13s1.28-.37,2.13,1.44A2,2,0,0,1,54.78,28.13Z"/><path class="cls-4" d="M56,29.58s1.27-.35,2.13,1.44A2.06,2.06,0,0,1,56,29.58Z"/><path class="cls-4" d="M57.24,31.12s1.27-.35,2.13,1.44A2,2,0,0,1,57.24,31.12Z"/><path class="cls-4" d="M53.17,24.73s1.32,0,1.63,2C54.8,26.72,53.08,26.32,53.17,24.73Z"/><line class="cls-4" x1="77.42" y1="21.94" x2="77.44" y2="14.6"/><path class="cls-4" d="M77.71,12.4a4.68,4.68,0,0,0,.43-1.73"/><path class="cls-4" d="M78,13.94a7.14,7.14,0,0,0,.88-2.34"/><path class="cls-4" d="M77.45,16.42a7.14,7.14,0,0,0,2.31-3.59"/><path class="cls-4" d="M77.45,18.37A10.05,10.05,0,0,0,80,14.6"/><path class="cls-4" d="M77.41,20.22a9.82,9.82,0,0,0,2.65-3.8"/><path class="cls-4" d="M77.19,12.31a4.4,4.4,0,0,1-.38-1.64"/><path class="cls-4" d="M77.44,14.73a12.37,12.37,0,0,1-1.33-3.12"/><path class="cls-4" d="M77.41,16.42a7.34,7.34,0,0,1-2.2-3.58"/><path class="cls-4" d="M77.4,18.37A10.93,10.93,0,0,1,75,14.6"/><path class="cls-4" d="M77.41,20.22a10.75,10.75,0,0,1-2.49-3.79"/><path class="cls-4" d="M78.31,13.68s-1.2.53-.73,2.47A2,2,0,0,0,78.31,13.68Z"/><path class="cls-4" d="M78.32,15.69s-1.23.54-.76,2.48A2.06,2.06,0,0,0,78.32,15.69Z"/><path class="cls-4" d="M78.33,17.54s-1.21.53-.73,2.47A2.06,2.06,0,0,0,78.33,17.54Z"/><path class="cls-4" d="M78.27,19.57s-1.2.54-.73,2.47A2,2,0,0,0,78.27,19.57Z"/><path class="cls-4" d="M76.52,13.69s1.21.53.74,2.46A2,2,0,0,1,76.52,13.69Z"/><path class="cls-4" d="M76.53,15.69s1.22.52.74,2.47A2,2,0,0,1,76.53,15.69Z"/><path class="cls-4" d="M76.53,17.54s1.21.53.74,2.47A2.06,2.06,0,0,1,76.53,17.54Z"/><path class="cls-4" d="M76.56,19.56s1.21.53.74,2.46A2,2,0,0,1,76.56,19.56Z"/><path class="cls-4" d="M77.43,12s1,.85,0,2.58A2.06,2.06,0,0,1,77.43,12Z"/><line class="cls-4" x1="70.22" y1="23.17" x2="68.59" y2="16.01"/><path class="cls-4" d="M68.36,13.81a4.73,4.73,0,0,0,0-1.78"/><path class="cls-4" d="M69,15.25a7.31,7.31,0,0,0,.34-2.48"/><path class="cls-4" d="M69,17.79a7.13,7.13,0,0,0,1.44-4"/><path class="cls-4" d="M69.45,19.68a10.15,10.15,0,0,0,1.6-4.24"/><path class="cls-4" d="M69.83,21.49a9.82,9.82,0,0,0,1.73-4.3"/><path class="cls-4" d="M67.84,13.84a4.56,4.56,0,0,1-.74-1.51"/><path class="cls-4" d="M68.62,16.13a12.08,12.08,0,0,1-2-2.74"/><path class="cls-4" d="M69,17.79a7.36,7.36,0,0,1-3-3"/><path class="cls-4" d="M69.4,19.69a10.87,10.87,0,0,1-3.18-3.14"/><path class="cls-4" d="M69.82,21.49a10.53,10.53,0,0,1-3.27-3.13"/><path class="cls-4" d="M69.23,14.92s-1,.79-.15,2.57A2,2,0,0,0,69.23,14.92Z"/><path class="cls-4" d="M69.69,16.87s-1.08.8-.18,2.58A2,2,0,0,0,69.69,16.87Z"/><path class="cls-4" d="M70.11,18.68s-1,.79-.15,2.57A2,2,0,0,0,70.11,18.68Z"/><path class="cls-4" d="M70.52,20.66s-1,.79-.15,2.57A2,2,0,0,0,70.52,20.66Z"/><path class="cls-4" d="M67.49,15.33s1.3.24,1.28,2.24A2.07,2.07,0,0,1,67.49,15.33Z"/><path class="cls-4" d="M68,17.27s1.31.24,1.28,2.24A2,2,0,0,1,68,17.27Z"/><path class="cls-4" d="M68.37,19.08s1.3.24,1.28,2.24A2.05,2.05,0,0,1,68.37,19.08Z"/><path class="cls-4" d="M68.85,21s1.29.24,1.28,2.24A2.05,2.05,0,0,1,68.85,21Z"/><path class="cls-4" d="M68,13.51s1.17.6.59,2.51A2,2,0,0,1,68,13.51Z"/><line class="cls-4" x1="63.89" y1="26.91" x2="60.7" y2="20.3"/><path class="cls-4" d="M60,18.21a4.57,4.57,0,0,0-.37-1.74"/><path class="cls-4" d="M60.88,19.48A7.31,7.31,0,0,0,60.65,17"/><path class="cls-4" d="M61.5,21.94A7.14,7.14,0,0,0,62,17.7"/><path class="cls-4" d="M62.35,23.68A10.11,10.11,0,0,0,63,19.19"/><path class="cls-4" d="M63.14,25.36a9.85,9.85,0,0,0,.72-4.58"/><path class="cls-4" d="M59.47,18.35a4.44,4.44,0,0,1-1.06-1.3"/><path class="cls-4" d="M60.75,20.42a12.26,12.26,0,0,1-2.56-2.22"/><path class="cls-4" d="M61.47,22a7.42,7.42,0,0,1-3.55-2.25"/><path class="cls-4" d="M62.31,23.7a10.92,10.92,0,0,1-3.8-2.34"/><path class="cls-4" d="M63.13,25.37a10.63,10.63,0,0,1-3.89-2.31"/><path class="cls-4" d="M61.07,19.09s-.85,1,.43,2.54A2,2,0,0,0,61.07,19.09Z"/><path class="cls-4" d="M62,20.89s-.87,1,.41,2.56A2.06,2.06,0,0,0,62,20.89Z"/><path class="cls-4" d="M62.78,22.56s-.85,1,.43,2.54A2.06,2.06,0,0,0,62.78,22.56Z"/><path class="cls-4" d="M63.62,24.4s-.85,1,.43,2.54A2,2,0,0,0,63.62,24.4Z"/><path class="cls-4" d="M59.46,19.88s1.32-.06,1.75,1.89C61.21,21.77,59.46,21.48,59.46,19.88Z"/><path class="cls-4" d="M60.35,21.67s1.33-.06,1.75,1.89C62.1,23.57,60.33,23.29,60.35,21.67Z"/><path class="cls-4" d="M61.16,23.35s1.32-.05,1.75,1.89C62.91,25.24,61.16,25,61.16,23.35Z"/><path class="cls-4" d="M62.07,25.14s1.32-.05,1.75,1.89C63.82,27,62.07,26.74,62.07,25.14Z"/><path class="cls-4" d="M59.56,18s1.28.33,1.13,2.31A2,2,0,0,1,59.56,18Z"/><line class="cls-4" x1="100.21" y1="26.64" x2="95.59" y2="32.35"/><path class="cls-4" d="M102.14,23.15a4.74,4.74,0,0,0-.76,1.61"/><path class="cls-4" d="M101,23.43a7.36,7.36,0,0,0-.79,2.37"/><path class="cls-4" d="M99.53,23.8A7.08,7.08,0,0,0,99.05,28"/><path class="cls-4" d="M98.26,25a10.16,10.16,0,0,0-.43,4.51"/><path class="cls-4" d="M97,26.39A9.74,9.74,0,0,0,96.68,31"/><path class="cls-4" d="M103.17,24a4.56,4.56,0,0,1-1.33,1"/><path class="cls-4" d="M103.13,25.16a12.25,12.25,0,0,1-3,1.58"/><path class="cls-4" d="M103.05,26.68a7.46,7.46,0,0,1-4,1.38"/><path class="cls-4" d="M102.09,28.17a11.06,11.06,0,0,1-4.23,1.42"/><path class="cls-4" d="M101,29.65A10.69,10.69,0,0,1,96.69,31"/><path class="cls-4" d="M99.12,27.75c1.59-1.2,1-2.37,1-2.37A2,2,0,0,0,99.12,27.75Z"/><path class="cls-4" d="M97.87,29.32c1.59-1.2,1-2.4,1-2.4A2,2,0,0,0,97.87,29.32Z"/><path class="cls-4" d="M96.67,30.73c1.59-1.2,1-2.38,1-2.38A2.06,2.06,0,0,0,96.67,30.73Z"/><path class="cls-4" d="M95.43,32.33c1.59-1.2,1-2.37,1-2.37A2,2,0,0,0,95.43,32.33Z"/><path class="cls-4" d="M99.37,28c.86-1.8,2.13-1.44,2.13-1.44A2,2,0,0,1,99.37,28Z"/><path class="cls-4" d="M98.1,29.5c.85-1.81,2.13-1.44,2.13-1.44A2,2,0,0,1,98.1,29.5Z"/><path class="cls-4" d="M96.92,30.94c.86-1.8,2.13-1.44,2.13-1.44C98.7,31.05,96.92,30.94,96.92,30.94Z"/><path class="cls-4" d="M95.63,32.48C96.5,30.69,97.76,31,97.76,31A2,2,0,0,1,95.63,32.48Z"/><path class="cls-4" d="M100.2,26.64c.31-2,1.63-2,1.63-2C101.93,26.24,100.2,26.64,100.2,26.64Z"/><line class="cls-4" x1="86.08" y1="16.03" x2="84.45" y2="23.19"/><path class="cls-4" d="M86.28,12a4.73,4.73,0,0,0,0,1.78"/><path class="cls-4" d="M85.38,12.79a7.37,7.37,0,0,0,.34,2.48"/><path class="cls-4" d="M84.22,13.79a7,7,0,0,0,1.44,4"/><path class="cls-4" d="M83.62,15.45a10.08,10.08,0,0,0,1.6,4.24"/><path class="cls-4" d="M83.11,17.21a9.82,9.82,0,0,0,1.73,4.3"/><path class="cls-4" d="M87.58,12.34a4.44,4.44,0,0,1-.74,1.51"/><path class="cls-4" d="M88.05,13.42a12.08,12.08,0,0,1-2,2.74"/><path class="cls-4" d="M88.65,14.82a7.36,7.36,0,0,1-3,3"/><path class="cls-4" d="M88.44,16.57a11.07,11.07,0,0,1-3.17,3.14"/><path class="cls-4" d="M88.12,18.38a10.62,10.62,0,0,1-3.28,3.13"/><path class="cls-4" d="M85.59,17.51c.9-1.78-.15-2.57-.15-2.57A2,2,0,0,0,85.59,17.51Z"/><path class="cls-4" d="M85.16,19.47c.9-1.78-.18-2.58-.18-2.58A2,2,0,0,0,85.16,19.47Z"/><path class="cls-4" d="M84.71,21.26c.9-1.78-.15-2.57-.15-2.57A2,2,0,0,0,84.71,21.26Z"/><path class="cls-4" d="M84.3,23.25c.9-1.78-.15-2.57-.15-2.57A2,2,0,0,0,84.3,23.25Z"/><path class="cls-4" d="M85.91,17.58c0-2,1.28-2.23,1.28-2.23A2.06,2.06,0,0,1,85.91,17.58Z"/><path class="cls-4" d="M85.45,19.53c0-2,1.28-2.24,1.28-2.24A2,2,0,0,1,85.45,19.53Z"/><path class="cls-4" d="M85,21.34c0-2,1.28-2.24,1.28-2.24A2.05,2.05,0,0,1,85,21.34Z"/><path class="cls-4" d="M84.55,23.29c0-2,1.28-2.24,1.28-2.24A2.06,2.06,0,0,1,84.55,23.29Z"/><path class="cls-4" d="M86.08,16c-.58-1.9.59-2.51.59-2.51A2.06,2.06,0,0,1,86.08,16Z"/><line class="cls-4" x1="94.09" y1="20.13" x2="90.89" y2="26.73"/><path class="cls-4" d="M95.18,16.29A4.8,4.8,0,0,0,94.81,18"/><path class="cls-4" d="M94.14,16.82a7.31,7.31,0,0,0-.23,2.49"/><path class="cls-4" d="M92.78,17.52a7.14,7.14,0,0,0,.5,4.24"/><path class="cls-4" d="M91.82,19a10.07,10.07,0,0,0,.61,4.49"/><path class="cls-4" d="M90.93,20.61a9.85,9.85,0,0,0,.72,4.58"/><path class="cls-4" d="M96.37,16.87a4.57,4.57,0,0,1-1.06,1.31"/><path class="cls-4" d="M96.59,18A12,12,0,0,1,94,20.24"/><path class="cls-4" d="M96.86,19.52a7.42,7.42,0,0,1-3.55,2.25"/><path class="cls-4" d="M96.27,21.18a10.92,10.92,0,0,1-3.8,2.34"/><path class="cls-4" d="M95.55,22.87a10.65,10.65,0,0,1-3.9,2.32"/><path class="cls-4" d="M93.28,21.46c1.28-1.53.43-2.54.43-2.54A2,2,0,0,0,93.28,21.46Z"/><path class="cls-4" d="M92.41,23.27c1.28-1.53.41-2.56.41-2.56A2.06,2.06,0,0,0,92.41,23.27Z"/><path class="cls-4" d="M91.58,24.92c1.28-1.53.43-2.54.43-2.54A2,2,0,0,0,91.58,24.92Z"/><path class="cls-4" d="M90.73,26.76c1.28-1.53.43-2.54.43-2.54A2,2,0,0,0,90.73,26.76Z"/><path class="cls-4" d="M93.57,21.6c.43-1.94,1.75-1.89,1.75-1.89C95.32,21.31,93.57,21.6,93.57,21.6Z"/><path class="cls-4" d="M92.69,23.39c.42-2,1.75-1.89,1.75-1.89C94.45,23.11,92.69,23.39,92.69,23.39Z"/><path class="cls-4" d="M91.87,25.06c.43-1.94,1.75-1.89,1.75-1.89C93.62,24.77,91.87,25.06,91.87,25.06Z"/><path class="cls-4" d="M91,26.86c.43-1.94,1.75-1.89,1.75-1.89C92.71,26.57,91,26.86,91,26.86Z"/><path class="cls-4" d="M94.08,20.13c-.14-2,1.14-2.31,1.14-2.31A2,2,0,0,1,94.08,20.13Z"/><circle class="cls-6" cx="77.52" cy="42.09" r="36.25"/><path class="cls-4" d="M73.19,47c-3.35-5.92-8-14-9.07-15.52-.94-1.3-7.25-10.63-7.66-10.42s4.13,8.54,5.76,11.39c.8,1.4,3.29,5.36,10.22,15.13C72.67,47.39,72.92,47.19,73.19,47Z"/><path class="cls-4" d="M71.31,48.73c-.57-.66-1.25-1.42-2.06-2.31-4.71-5.19-7.35-6.25-8.44-6.66A17.94,17.94,0,0,0,55.3,39a17.85,17.85,0,0,0,2.62,1.65h-.07a8.1,8.1,0,0,0,.95.17c2.88.34,3.1.1,5.71,2a61.78,61.78,0,0,1,6.31,6.5C70.94,49.17,71.11,49,71.31,48.73Z"/><path class="cls-4" d="M72.28,47.73,59.61,32.28c0,.28-.38.29-.38.29L72,48Z"/><path class="cls-4" d="M71.77,48.22C69,45,65.22,40.47,64.83,40.05a46.82,46.82,0,0,0-6.68-5c-1.8-.93-7.38-2.85-7.38-2.85s-.26-.19,1.34,1.68c2,2.38,4.7,2.79,7.2,3.37a11.33,11.33,0,0,1,4.59,2.61c1.16.87,4.47,5.23,6,6.86.38.4,1,1.05,1.56,1.77Z"/><path class="cls-4" d="M73.88,46.57c-.14-.28-9.47-19.36-9.7-19.81a.8.8,0,0,1-.43.25l9.77,19.77Z"/><path class="cls-4" d="M75,46.21c-2-6.53-5.29-16.9-6.12-18.78C68.26,26,64,15.52,63.57,15.64S65.78,24.87,66.76,28c.51,1.61,2.23,6.31,7.47,18.4A2.22,2.22,0,0,1,75,46.21Z"/><path class="cls-4" d="M75.69,46.28c-.38-1.65-5.2-23-5.23-23.13a.54.54,0,0,1-.46.08l5.27,23A1.84,1.84,0,0,1,75.69,46.28Z"/><path class="cls-4" d="M75.9,46.35a2.39,2.39,0,0,1,.75.47c-.28-6.68-.83-18.88-1.17-21C75.23,24.2,73.82,13,73.34,13s-.23,9.48-.08,12.76C73.34,27.5,73.83,32.73,75.9,46.35Z"/><path class="cls-4" d="M76.79,50.28c0-.62-.06-1.52-.11-2.66a1.55,1.55,0,0,0-.46-.41h0L76,47.12h0l.59,3.37,0,.23C76.68,50.63,76.73,50.48,76.79,50.28Z"/><path class="cls-4" d="M77.43,47.86a.08.08,0,0,1,0,0,1.57,1.57,0,0,1,.22-.44c0-1,.06-25.3.06-25.49a.42.42,0,0,1-.48,0l0,25.56A2.34,2.34,0,0,1,77.43,47.86Z"/><path class="cls-4" d="M91.24,15.74c-.46-.12-4.69,10.32-5.34,11.79-.83,1.87-4.06,12.13-6.09,18.67a2.12,2.12,0,0,1,.8.21c5.2-12,6.93-16.71,7.43-18.31C89,25,91.69,15.86,91.24,15.74Z"/><path class="cls-4" d="M79.55,46.2c.11-.5,5.06-22.75,5.1-22.94a.5.5,0,0,1-.47-.08l-5.06,23.1A2,2,0,0,1,79.55,46.2Z"/><path class="cls-4" d="M78.91,46.37C81,32.79,81.46,27.61,81.54,25.9c.15-3.28.39-12.76-.08-12.76S79.57,24.32,79.32,25.9c-.34,2.16-.89,14.3-1.16,21A2.12,2.12,0,0,1,78.91,46.37Z"/><path class="cls-4" d="M82.27,49.24l-2,2.34a1.59,1.59,0,0,1,.17.52c.18-.23,1.11-1.36,2.09-2.55A2.28,2.28,0,0,1,82.27,49.24Z"/><path class="cls-4" d="M81.84,48.66l-1.15,1.39c-.25.36-.5.7-.77,1.07a1.57,1.57,0,0,1,.21.24l2-2.36C82,48.88,81.92,48.77,81.84,48.66Z"/><path class="cls-4" d="M81.16,47.91C80.53,49,80,50,79.49,50.85a2,2,0,0,1,.37.22s1.55-2,1.9-2.51l-.25-.3Z"/><path class="cls-4" d="M83.52,50a1.49,1.49,0,0,1-.77-.26c-1.66,1.95-2.16,2.63-2.31,2.86a1.37,1.37,0,0,1-.11.36l-.08.16a2.28,2.28,0,0,1,.5.06,1.52,1.52,0,0,1,.22-.22c.41-.49,1.43-1.68,2.55-3Z"/><path class="cls-4" d="M71.35,50c.87,1,1.65,1.89,2.11,2.44h.19a1.6,1.6,0,0,1,.62.13l.22.11c-.23-.3-.88-1.19-2.35-2.93A1.51,1.51,0,0,1,71.35,50Z"/><path class="cls-4" d="M79,47.09c0,.2-.68,3.2-.75,3.6,0,0,0,0,0,.05l0,.13.1,0c.16-.47.23-.73.58-1.86L79.37,47A1.42,1.42,0,0,0,79,47.09Z"/><path class="cls-4" d="M75.21,54a1.57,1.57,0,1,1-1.57-1.57A1.57,1.57,0,0,1,75.21,54Z"/><path class="cls-4" d="M81,68.05a1.77,1.77,0,1,1-1.77-1.77A1.78,1.78,0,0,1,81,68.05Z"/><path class="cls-4" d="M77.8,58.42A1.77,1.77,0,1,1,76,56.65,1.77,1.77,0,0,1,77.8,58.42Z"/><path class="cls-4" d="M74.25,58.42A1.77,1.77,0,0,1,75,57a1.56,1.56,0,1,0-.72,1.49A.35.35,0,0,1,74.25,58.42Z"/><path class="cls-4" d="M74.32,58.89a1.63,1.63,0,0,0-.59-.1,1.77,1.77,0,1,0,1.77,1.77,1.7,1.7,0,0,0-.06-.46A1.78,1.78,0,0,1,74.32,58.89Z"/><path class="cls-4" d="M77.46,53.37a1.77,1.77,0,0,0-1.27.54,1.56,1.56,0,0,1,.1,2.55,1.74,1.74,0,0,0,1.17.45,1.77,1.77,0,1,0,0-3.54Z"/><path class="cls-4" d="M76.11,50.7a1.57,1.57,0,0,0-1.57,1.57,1.27,1.27,0,0,0,.07.44,1.59,1.59,0,0,1,.54.8,1.1,1.1,0,0,0,.21.14,1.79,1.79,0,0,1,.73.19h.17a1.8,1.8,0,0,1,1-.46,1.56,1.56,0,0,0,.46-1.11A1.58,1.58,0,0,0,76.11,50.7Z"/><path class="cls-4" d="M79,53.87a1.58,1.58,0,0,1,1.28-.78,1.51,1.51,0,0,0,.21-.79,1.57,1.57,0,0,0-3-.75,1.6,1.6,0,0,1,.18.72,1.58,1.58,0,0,1-.19.75,1.41,1.41,0,0,0,.27.37,1.7,1.7,0,0,1,.92.47h.2A.21.21,0,0,0,79,53.87Z"/><path class="cls-4" d="M77.77,69.08a0,0,0,0,1,0,0,1.57,1.57,0,0,1-1.17.53,1.61,1.61,0,0,1-.44-.06,1.57,1.57,0,1,0,2.74,1,1.58,1.58,0,0,0-.26-.86A1.87,1.87,0,0,1,77.77,69.08Z"/><path class="cls-4" d="M77.44,68.05a2.45,2.45,0,0,1,0-.27,1.78,1.78,0,0,1-1.14.42,1.73,1.73,0,0,1-1.26-.53A1.47,1.47,0,0,0,75,68a1.57,1.57,0,0,0,1.57,1.57,1.59,1.59,0,0,0,1.18-.53A1.73,1.73,0,0,1,77.44,68.05Z"/><path class="cls-4" d="M76.38,64.85v0a1.76,1.76,0,0,1-1,.32l-.24,0a1.77,1.77,0,0,0,2.34,2.66,1.79,1.79,0,0,1,.61-1.08s0,0,0-.07A1.79,1.79,0,0,1,76.38,64.85Z"/><path class="cls-4" d="M77.08,63.34a1.77,1.77,0,0,1-1.77-1.75h-.15a1.76,1.76,0,0,1-1.22.72,1.77,1.77,0,0,0,2.44,2.49,1.79,1.79,0,0,1,.76-1.43v-.06A.07.07,0,0,1,77.08,63.34Z"/><path class="cls-4" d="M82.05,55.66a1.78,1.78,0,0,0-1.35.62,1.76,1.76,0,0,1,.45,1.18,1.72,1.72,0,0,1-.25.91l.25,0a1.76,1.76,0,0,1,1.45.76,1.77,1.77,0,0,0-.55-3.45Z"/><path class="cls-4" d="M81.09,64a1.8,1.8,0,0,1-1.18.69.06.06,0,0,0,0,0,1.64,1.64,0,0,1,0,.22,1.78,1.78,0,0,1-.72,1.43h0a1.78,1.78,0,0,1,1.45.75,1.77,1.77,0,0,0,1.11-1.65A1.73,1.73,0,0,0,81.09,64Z"/><path class="cls-4" d="M79.74,64.07a.83.83,0,0,0-.07-.13A.83.83,0,0,1,79.74,64.07Z"/><path class="cls-4" d="M79.89,64.51a.24.24,0,0,0,0-.08A.31.31,0,0,1,79.89,64.51Z"/><path class="cls-4" d="M79.8,64.21a.61.61,0,0,0,0-.12A.61.61,0,0,1,79.8,64.21Z"/><path class="cls-4" d="M79.85,64.36l0-.1Z"/><path class="cls-4" d="M80.05,59.11a1.85,1.85,0,0,1-.66.13,1.78,1.78,0,0,1-1.34-.61,1.51,1.51,0,0,0-.28.15A1.77,1.77,0,0,1,77,59.92a2.09,2.09,0,0,0,0,.35,1.77,1.77,0,1,0,3.11-1.16Z"/><path class="cls-4" d="M79.84,59.18Z"/><path class="cls-4" d="M81.15,58.36l-.25,0a1.75,1.75,0,0,1-.86.73h0a1.77,1.77,0,0,1,.44,1.16A1.75,1.75,0,0,1,80,61.48a1.77,1.77,0,0,0,2.92-1.35A1.76,1.76,0,0,0,81.15,58.36Z"/><path class="cls-4" d="M80.63,56.2a1.57,1.57,0,0,1-1.48-.5h0a1.76,1.76,0,0,1-1.43,1.18,1.8,1.8,0,0,0-.1.57,1.28,1.28,0,0,0,0,.19,1.68,1.68,0,0,1,.17.59,1.77,1.77,0,0,0,3.37-.77A1.72,1.72,0,0,0,80.63,56.2Z"/><path class="cls-4" d="M74.93,56.74a1.75,1.75,0,0,0,.4,0,1.58,1.58,0,0,1,.65-.14,1.57,1.57,0,0,0-.65-3h-.14a1.53,1.53,0,0,1,0,.3,1.58,1.58,0,0,1-1.43,1.57.35.35,0,0,0,0,.11A1.55,1.55,0,0,1,74.93,56.74Z"/><path class="cls-4" d="M81.43,55.78a1.57,1.57,0,0,0-1.1-2.69,1.55,1.55,0,0,0-1.45,1,1.78,1.78,0,0,1,.27,1.63,1.57,1.57,0,0,0,1.18.54,1.5,1.5,0,0,0,.52-.09A1.6,1.6,0,0,1,81.43,55.78Z"/><path class="cls-4" d="M78.71,62l-.24,0A1,1,0,0,0,78.71,62Z"/><path class="cls-4" d="M78.18,62h0l.23,0A1,1,0,0,1,78.18,62Z"/><path class="cls-4" d="M81.13,61.91A1.75,1.75,0,0,1,80,61.49h0a1.77,1.77,0,0,1-1.3.56h.08a1.75,1.75,0,0,1-.8,1h.17a1.77,1.77,0,0,1,1.76,1.6,1.78,1.78,0,0,0,1.54-1.76A1.73,1.73,0,0,0,81.13,61.91Z"/><path class="cls-4" d="M78.71,62a1.77,1.77,0,0,1-1.77-1.77,1.34,1.34,0,0,1,0-.35,1.78,1.78,0,0,1-.94.27H76a1.88,1.88,0,0,0-.48.61,1.94,1.94,0,0,1-.15.5,2.11,2.11,0,0,0,0,.25A1.77,1.77,0,0,0,78.8,62,.15.15,0,0,1,78.71,62Z"/><path class="cls-4" d="M81.9,54.66a1.59,1.59,0,0,1-.34,1l.23,0,.27,0h.2a1.57,1.57,0,1,0-1.5-2.53A1.58,1.58,0,0,1,81.9,54.66Z"/><rect class="cls-7" x="-30.48" y="131.73" width="216" height="15.1"/><g class="cls-8"><text class="cls-9" transform="translate(20.61 138.88)">G<tspan class="cls-10" x="7.19" y="0">r</tspan><tspan class="cls-11" x="10.48" y="0">eater </tspan></text><text class="cls-12" transform="translate(53.06 138.88)">D</text><text class="cls-12" transform="translate(60.75 138.88)">es </text><text class="cls-12" transform="translate(70.75 138.88)">M</text><text class="cls-12" transform="translate(79.56 138.88)">oines</text><text class="cls-12" transform="translate(100.04 138.88)"> </text><text class="cls-12" transform="translate(102.24 138.88)">Cha</text><text class="cls-12" transform="translate(118.6 138.88)">p</text><text class="cls-12" transform="translate(123.64 138.88)">ter</text></g></svg>